<?xml version="1.0" standalone="no"?>
<!DOCTYPE svg PUBLIC "-//W3C//DTD SVG 20010904//EN"
 "http://www.w3.org/TR/2001/REC-SVG-20010904/DTD/svg10.dtd">
<svg version="1.0" xmlns="http://www.w3.org/2000/svg"
 width="2400.000000pt" height="1714.000000pt" viewBox="0 0 2400.000000 1714.000000"
 preserveAspectRatio="xMidYMid meet">

<g transform="translate(0.000000,1714.000000) scale(0.100000,-0.100000)"
fill="#000000" stroke="none">
<path d="M10210 17047 c-20 -7 -47 -29 -65 -53 -78 -106 -44 -90 -290 -135
-66 -12 -89 -18 -185 -50 -506 -164 -834 -407 -1037 -769 -100 -178 -224 -548
-262 -780 -7 -41 -16 -95 -21 -120 -5 -25 -13 -79 -19 -120 -7 -41 -17 -106
-24 -145 l-12 -70 -88 -3 c-61 -2 -87 -6 -87 -15 0 -8 13 -11 38 -9 l39 4 1
-77 c1 -42 6 -84 12 -95 14 -26 12 -40 -5 -40 -10 0 -15 -10 -15 -30 0 -25 4
-30 25 -30 14 0 25 -1 25 -2 -1 -13 -31 -99 -44 -123 -20 -39 -64 -81 -96 -90
-14 -4 -30 -15 -37 -24 -10 -13 -13 -2 -14 59 -1 41 -1 112 1 158 2 69 0 82
-14 82 -9 0 -16 -1 -16 -2 0 -2 -5 -61 -10 -132 -5 -71 -12 -131 -14 -134 -3
-2 -12 -2 -21 2 -15 5 -15 40 -1 151 0 6 -10 10 -24 10 l-25 0 2 -150 c1 -97
-1 -139 -7 -120 -5 19 -8 -48 -7 -177 2 -159 5 -208 15 -208 6 0 12 -4 12 -10
0 -5 10 -10 23 -10 55 0 56 -4 61 -280 3 -140 8 -291 11 -334 8 -90 0 -145
-20 -153 -9 -3 -36 14 -66 41 -77 69 -80 55 -4 -20 44 -43 65 -70 61 -80 -3
-9 -6 -18 -6 -21 0 -8 -95 75 -209 182 -58 56 -117 110 -131 120 -14 11 -38
38 -55 60 -16 22 -77 89 -135 149 -109 112 -158 165 -175 188 -6 7 -35 43 -66
79 -30 36 -93 119 -140 183 -46 65 -101 141 -122 169 -48 66 -129 184 -142
205 -5 10 -22 37 -37 62 -42 70 -108 207 -108 224 0 8 -9 30 -20 49 -11 19
-33 72 -49 118 -16 46 -39 111 -51 144 -13 35 -19 70 -16 87 6 32 -10 38 -30
11 -16 -21 -18 -74 -5 -140 79 -409 141 -808 141 -912 0 -113 -79 -314 -174
-443 -69 -95 -211 -193 -331 -228 -138 -41 -165 -57 -165 -96 0 -27 26 -47 90
-67 106 -34 239 -61 435 -87 593 -79 665 -92 813 -151 12 -5 32 -13 45 -18 22
-9 89 -39 162 -72 70 -32 168 -89 225 -132 70 -52 227 -187 261 -223 44 -48
163 -370 157 -423 -3 -23 -8 -27 -48 -31 -32 -4 -44 -9 -42 -19 4 -18 -16 -31
-50 -31 -39 0 -229 -64 -313 -105 -135 -66 -267 -147 -322 -198 -13 -11 -26
-17 -30 -13 -20 20 206 178 361 252 53 25 96 47 96 50 0 6 -101 -36 -165 -69
-140 -73 -337 -220 -441 -328 -62 -66 -144 -170 -144 -183 0 -5 -8 -20 -18
-34 -60 -87 -178 -404 -221 -592 -38 -165 -80 -554 -81 -744 l0 -59 41 7 c35
6 46 3 77 -22 20 -16 44 -33 53 -38 15 -8 14 -16 -6 -85 -13 -42 -37 -101 -53
-131 -17 -29 -36 -82 -43 -117 -11 -59 -15 -65 -64 -101 -51 -38 -155 -158
-155 -179 0 -6 18 -11 43 -11 44 0 192 -23 262 -39 22 -6 60 -14 85 -20 126
-27 325 -117 404 -183 48 -39 47 -57 -13 -236 -114 -344 -183 -565 -187 -600
l-5 -37 20 40 c18 37 61 161 81 230 4 17 13 44 19 60 5 17 15 50 22 75 7 25
34 111 61 191 26 81 48 156 48 168 0 22 7 26 28 12 20 -12 18 -39 -10 -121
-13 -41 -31 -95 -38 -120 -14 -47 -72 -230 -116 -365 -15 -44 -32 -89 -38
-100 -7 -11 -18 -45 -25 -74 -8 -30 -22 -74 -33 -97 -10 -24 -22 -62 -27 -86
-5 -24 -21 -77 -36 -118 -14 -41 -39 -118 -54 -170 -27 -93 -28 -95 -57 -94
-16 0 -67 14 -114 31 -120 43 -181 55 -295 62 -90 6 -189 -2 -291 -24 -17 -4
-34 -3 -37 1 -3 5 1 38 9 74 7 36 14 74 14 85 0 18 -2 17 -15 -5 -8 -14 -18
-33 -21 -42 -3 -10 -10 -15 -15 -12 -10 6 -16 -20 -23 -99 -6 -74 -1 -87 35
-87 35 0 50 -14 118 -113 51 -73 54 -76 74 -62 15 10 47 15 99 15 78 0 78 0
98 -32 11 -18 20 -45 20 -60 0 -15 4 -37 9 -50 13 -32 35 -120 71 -278 45
-196 50 -211 82 -252 15 -20 28 -40 28 -43 0 -7 -27 -2 -71 11 -11 3 -23 -6
-35 -25 -18 -28 -112 -138 -162 -189 -18 -19 -26 -21 -37 -12 -8 7 -15 18 -15
25 0 14 66 89 158 181 53 54 61 71 40 92 -6 6 -21 48 -33 94 -13 46 -29 100
-37 121 -15 38 -38 69 -38 51 0 -12 39 -178 55 -233 13 -41 12 -47 -8 -74 -36
-47 -129 -147 -139 -147 -4 0 -8 31 -8 68 0 38 -9 118 -19 178 -11 60 -22 157
-26 217 -8 120 -12 114 68 101 26 -5 42 -14 51 -32 23 -44 28 -6 10 84 -22
109 -33 123 -109 134 -52 7 -62 6 -75 -10 -8 -10 -44 -55 -79 -101 l-63 -82 5
-66 c4 -54 2 -74 -15 -108 l-21 -42 21 -49 c30 -70 45 -133 72 -302 13 -84 28
-228 26 -259 -1 -22 3 -24 45 -26 70 -3 122 -33 130 -72 4 -18 11 -39 17 -46
27 -32 163 -108 218 -121 32 -8 79 -21 103 -30 24 -9 72 -16 106 -16 59 0 65
-2 94 -35 17 -20 31 -38 31 -42 0 -9 -75 -128 -232 -367 -139 -212 -161 -238
-257 -314 -20 -16 -22 -21 -12 -40 16 -30 32 -28 68 11 40 42 294 411 447 651
31 49 40 57 59 52 84 -24 173 -14 219 24 l23 19 -25 2 c-14 1 -35 0 -48 -1
-12 -1 -60 16 -105 38 -45 22 -96 46 -113 52 -17 6 -56 36 -87 65 l-56 54 29
31 c16 17 54 42 85 55 50 23 61 24 96 14 69 -21 66 22 -4 46 -65 22 -65 23
-66 171 -2 195 11 229 113 289 42 24 46 25 79 11 51 -21 122 -116 172 -231 24
-55 44 -107 45 -115 0 -8 -24 -36 -52 -62 -150 -132 -192 -183 -167 -199 27
-17 45 -9 57 25 23 64 195 188 238 172 24 -9 36 -117 25 -225 -6 -57 -11 -148
-11 -203 0 -96 -2 -103 -40 -184 -22 -47 -40 -90 -40 -97 0 -7 -4 -17 -9 -23
-4 -5 -20 -39 -34 -76 -15 -37 -43 -89 -63 -115 -46 -59 -84 -144 -84 -184 0
-17 -4 -49 -9 -72 -5 -23 -15 -76 -20 -117 -34 -238 -52 -350 -56 -362 -6 -17
-35 -212 -46 -308 -21 -185 -27 -224 -78 -522 -17 -98 -31 -187 -31 -198 0
-11 11 -30 25 -42 14 -12 25 -28 25 -36 0 -8 -20 -78 -44 -156 -24 -78 -54
-175 -67 -216 -12 -41 -31 -104 -41 -140 -11 -36 -23 -74 -28 -85 -4 -11 -33
-99 -63 -195 -31 -96 -70 -217 -87 -269 -16 -51 -30 -106 -30 -121 0 -32 66
-112 112 -136 27 -14 34 -13 95 7 36 12 90 35 120 50 93 49 107 41 117 -71 4
-41 14 -86 23 -98 21 -33 86 -59 189 -78 83 -14 110 -27 98 -46 -3 -4 -9 -29
-14 -56 -27 -148 -56 -249 -116 -394 -47 -115 -68 -181 -71 -223 -6 -65 -26
-103 -78 -147 -18 -15 -49 -60 -69 -99 -25 -49 -67 -104 -126 -166 -104 -110
-124 -147 -144 -268 -9 -56 -26 -111 -43 -145 -31 -59 -53 -125 -53 -158 0
-52 68 -123 155 -161 67 -30 168 -56 270 -69 182 -25 246 -32 370 -37 72 -4
155 -8 185 -10 72 -5 295 13 340 27 64 20 174 104 221 169 31 44 63 189 89
399 17 136 34 168 153 278 l47 43 0 97 c-1 138 -14 224 -39 259 -19 26 -21 34
-12 78 6 28 16 130 22 228 11 171 13 178 37 197 13 11 30 20 37 20 7 0 63 -20
126 -45 63 -25 117 -45 120 -45 3 0 9 27 13 61 7 75 23 110 56 126 44 21 182
53 278 65 164 20 320 -18 457 -111 17 -12 33 -21 38 -21 4 0 23 25 42 55 34
52 38 55 76 55 22 0 70 -5 107 -10 37 -6 123 -17 192 -26 69 -8 152 -19 185
-24 33 -5 94 -13 135 -19 184 -26 405 -64 585 -101 180 -36 231 -46 310 -59
110 -19 363 -48 473 -55 41 -3 80 -10 87 -16 8 -6 15 -51 20 -120 6 -103 5
-113 -16 -158 -28 -57 -30 -158 -5 -265 25 -107 36 -121 124 -163 78 -38 120
-45 180 -32 31 7 38 4 89 -45 57 -54 180 -194 246 -282 133 -176 320 -300 547
-362 89 -25 272 -18 465 17 28 5 86 14 130 20 44 7 100 16 125 20 25 5 72 14
105 20 105 20 153 40 205 87 51 46 110 149 110 194 0 26 -38 109 -50 109 -11
0 -26 45 -45 140 -27 132 -50 184 -113 251 -43 47 -77 72 -153 110 -54 26
-104 58 -112 70 -12 17 -14 46 -10 152 5 111 2 152 -18 257 -25 133 -28 222
-15 391 6 68 5 151 -3 235 -21 235 -42 448 -51 524 -5 41 -13 113 -19 160 -21
173 -34 263 -61 425 -35 209 9 841 90 1300 5 28 14 77 20 110 11 67 74 402 90
480 5 28 19 97 30 155 21 109 54 253 70 305 4 17 11 44 15 61 7 38 39 74 65
74 25 0 27 44 5 86 -23 45 -18 154 13 274 19 75 32 106 43 108 17 3 199 -192
199 -213 0 -6 -20 -31 -45 -55 -25 -24 -45 -48 -45 -52 0 -37 127 74 150 130
7 19 18 31 25 28 7 -2 21 4 30 14 13 15 22 17 36 9 11 -5 41 -11 69 -13 29 -1
57 -10 68 -19 10 -9 23 -17 29 -17 18 0 36 -79 23 -109 -9 -23 -15 -26 -46
-23 -28 3 -39 0 -51 -18 -11 -15 -18 -19 -26 -11 -17 17 -45 13 -52 -8 -5 -16
-14 -19 -51 -16 -43 3 -46 1 -62 -31 -8 -19 -20 -34 -26 -35 -55 -4 -156 -30
-156 -40 0 -3 -18 -9 -40 -13 -22 -3 -40 -10 -40 -15 0 -23 37 -32 156 -37
129 -6 129 -6 169 21 64 45 135 85 149 85 13 0 204 -153 342 -274 96 -85 125
-109 184 -157 25 -20 68 -58 95 -84 28 -26 79 -71 115 -100 36 -29 112 -94
170 -144 58 -50 110 -91 116 -91 5 0 19 6 29 14 19 13 17 16 -29 66 -53 57
-277 279 -321 320 -25 23 -26 23 -14 3 15 -25 9 -36 -14 -27 -21 8 -33 44 -17
54 11 7 -52 82 -175 205 -196 197 -265 273 -265 294 0 79 39 151 81 151 11 0
21 6 24 13 6 18 14 88 15 124 0 28 8 38 60 73 62 42 70 53 46 67 -21 13 -89
113 -76 113 6 0 37 -24 68 -54 31 -29 93 -86 137 -127 117 -108 238 -230 435
-439 96 -102 184 -191 194 -199 10 -8 28 -26 40 -40 12 -14 58 -65 104 -113
45 -49 82 -93 82 -98 0 -19 28 -10 44 15 19 29 21 55 4 55 -7 0 -21 14 -30 30
-18 32 -38 40 -38 16 0 -16 23 -42 42 -48 7 -3 9 -12 5 -22 -6 -16 -11 -14
-41 18 -19 20 -39 36 -45 36 -6 0 -11 5 -11 10 0 6 7 10 15 10 25 0 19 70 -8
100 -12 14 -62 77 -112 140 -49 63 -95 122 -102 130 -7 8 -50 61 -95 117 -112
136 -268 315 -290 331 -10 7 -18 18 -18 23 0 15 -53 58 -72 59 -11 0 -22 17
-33 50 -9 27 -27 58 -41 69 -13 10 -24 23 -24 29 0 5 -6 15 -14 21 -8 7 -18
27 -22 44 -8 40 -111 147 -136 143 -31 -4 -39 -19 -24 -46 7 -14 11 -31 8 -38
-4 -13 16 -109 27 -127 3 -5 7 -21 9 -34 2 -13 10 -37 18 -52 8 -16 10 -30 5
-34 -14 -8 -51 34 -57 65 -6 26 -31 91 -66 170 -65 145 -75 168 -108 250 -12
30 -42 93 -66 140 -24 47 -42 90 -41 95 2 10 6 11 34 14 7 0 30 17 52 36 21
19 41 35 45 35 15 0 76 47 69 53 -3 4 -18 0 -31 -9 -17 -11 -62 -19 -131 -25
-178 -14 -168 -15 -182 34 -17 58 -34 73 -24 22 13 -76 13 -77 -30 -91 -184
-58 -246 -76 -285 -84 -25 -5 -53 -12 -62 -15 -14 -6 -18 -2 -18 17 0 14 -8
33 -19 42 -17 16 -19 16 -24 -4 -5 -18 -9 -20 -26 -10 -12 6 -21 16 -21 22 0
6 -6 19 -13 27 -25 29 -69 163 -57 175 14 14 24 1 46 -59 23 -63 60 -120 69
-106 3 6 19 11 34 11 15 0 31 3 34 7 4 3 35 19 70 35 l62 29 -50 -6 c-27 -4
-69 -13 -93 -21 -70 -23 -64 -27 -106 69 -9 21 -16 44 -16 52 0 7 -8 26 -17
43 -17 29 -12 69 7 57 12 -7 13 5 2 23 -5 7 -16 10 -24 7 -9 -4 -19 -1 -24 6
-9 16 33 50 84 68 20 8 46 20 57 28 18 14 15 14 -30 8 -27 -4 -61 -8 -75 -9
-14 -1 -31 -5 -38 -9 -15 -10 -31 28 -24 57 3 11 7 15 10 8 2 -6 8 -12 13 -12
15 0 10 26 -9 44 -10 9 -34 48 -53 86 -18 39 -39 70 -46 70 -7 0 -13 12 -13
28 -2 67 -11 126 -20 132 -6 4 -13 13 -14 21 -2 8 -6 21 -10 30 -4 9 -8 27
-10 40 -5 42 -18 79 -28 79 -6 0 -8 14 -4 34 6 29 2 40 -22 68 -16 18 -32 49
-36 69 -6 32 -41 79 -53 71 -7 -5 -45 47 -41 56 8 19 129 123 178 154 96 61
210 120 223 115 7 -2 21 3 32 13 27 23 259 98 329 106 47 6 57 10 61 28 10 52
16 157 16 297 0 159 3 173 49 222 21 22 38 29 83 34 31 3 54 10 51 15 -3 5
-14 6 -23 3 -10 -3 -29 -1 -42 4 -18 6 -34 3 -61 -10 -21 -11 -40 -19 -43 -19
-3 0 -4 60 -3 133 2 79 7 132 13 132 6 0 11 -12 13 -27 4 -30 32 -40 32 -12 0
9 9 27 20 41 14 18 20 41 20 73 0 30 6 52 15 60 13 11 12 15 -5 38 -19 24 -19
26 -4 44 21 23 13 34 -14 17 -16 -10 -23 -10 -36 4 -18 18 -21 44 -5 49 14 5
0 38 -17 38 -17 0 -18 -12 -2 -28 9 -9 7 -13 -6 -18 -9 -4 -19 -4 -23 -1 -9 9
-19 79 -15 110 3 24 5 26 19 12 8 -9 25 -15 37 -13 17 2 21 10 22 38 1 62 4
70 23 70 25 0 35 27 14 38 -18 10 -51 5 -72 -12 -10 -7 -16 -6 -26 7 -7 9 -22
17 -34 17 -24 0 -28 18 -6 26 19 8 20 24 1 24 -10 0 -21 22 -32 58 -9 31 -22
71 -29 87 -7 17 -16 55 -19 85 -9 74 -35 201 -47 222 -5 10 -9 27 -9 37 0 11
-4 23 -10 26 -5 3 -10 13 -10 21 0 32 -139 318 -183 376 -18 24 -45 63 -62 86
-82 122 -246 274 -422 392 -45 30 -82 58 -83 63 -1 28 143 -44 247 -125 155
-119 317 -324 407 -513 21 -44 44 -91 51 -105 7 -14 15 -37 19 -53 6 -25 8
-26 29 -15 12 7 26 11 32 9 5 -1 14 4 20 13 18 23 55 -6 55 -44 0 -24 3 -27
21 -23 11 3 25 17 30 32 8 19 12 22 19 12 15 -25 40 -4 40 34 0 32 3 36 23 33
17 -2 22 -9 22 -31 -1 -31 15 -31 30 1 5 11 19 23 31 26 11 3 33 24 48 47 26
38 26 42 12 64 -22 33 -20 55 4 55 23 0 36 39 22 67 -10 17 -15 54 -13 82 1 8
7 11 16 7 9 -3 18 1 21 9 3 7 12 11 20 8 8 -3 14 0 14 6 0 6 -4 11 -10 11 -18
0 -10 28 13 43 20 13 24 13 36 -1 12 -12 12 -16 -2 -24 -17 -9 -24 -38 -9 -38
4 0 13 9 19 19 9 15 22 19 57 18 50 -2 69 9 45 26 -24 18 -30 74 -9 80 17 4
30 46 30 92 0 18 7 24 35 29 19 4 37 12 41 17 4 8 -3 9 -23 5 -28 -6 -29 -5
-26 21 2 15 0 33 -4 39 -4 7 -53 33 -108 58 -88 41 -170 89 -185 107 -3 4 -25
16 -50 29 -25 12 -77 51 -116 86 -40 35 -75 64 -78 64 -5 0 -158 151 -194 191
-7 8 -37 46 -67 86 -61 81 -78 94 -150 118 -27 10 -63 28 -80 40 -16 13 -64
40 -105 59 -41 20 -93 52 -115 71 -22 19 -44 35 -48 35 -37 1 -298 246 -326
305 -28 61 -40 80 -57 90 -10 6 -38 29 -62 53 -25 23 -55 45 -68 48 -13 3 -24
12 -24 18 0 7 -10 22 -23 34 -32 30 -177 102 -207 102 -54 1 -62 27 -63 207
-1 132 5 164 25 130 27 -50 134 -146 203 -183 11 -6 49 -26 85 -46 91 -49 230
-91 230 -70 0 5 -40 30 -88 54 -135 70 -285 170 -367 247 l-43 41 28 30 c31
33 40 37 40 16 0 -18 114 -123 198 -184 149 -106 393 -178 585 -171 106 4 139
19 166 75 8 16 18 31 23 32 4 2 6 8 3 13 -4 5 -1 17 4 26 10 17 10 17 11 1 0
-10 4 -18 9 -18 13 0 41 76 40 108 0 15 -3 21 -6 15 -2 -7 -13 -13 -24 -13
-17 0 -19 8 -19 79 0 116 -24 222 -70 315 -57 114 -100 169 -178 226 -191 141
-386 178 -578 111 -95 -34 -184 -105 -184 -147 0 -12 -5 -26 -10 -29 -13 -8
-30 36 -32 83 l-1 37 -4 -32 c-5 -41 -17 -42 -40 -2 -18 30 -18 30 -23 -133
-5 -160 -5 -163 -27 -166 -13 -2 -23 2 -23 8 0 6 -14 9 -34 7 -32 -4 -34 -2
-40 32 -3 20 -6 68 -6 107 0 130 -12 224 -27 224 -12 0 -14 -22 -12 -125 3
-110 -2 -148 -15 -134 -7 7 -25 197 -28 291 -2 71 1 90 16 106 13 15 14 22 5
27 -8 6 -10 30 -6 81 5 72 5 74 -19 80 l-25 6 21 15 c14 10 20 22 17 35 -5 18
-1 19 50 16 l55 -3 -1 110 c-2 125 -2 126 -20 180 -19 58 -135 243 -172 275
-3 3 -29 37 -58 75 -29 39 -65 85 -79 104 -40 49 -69 104 -83 153 -7 23 -21
55 -31 70 -10 14 -18 29 -18 32 0 11 -43 100 -60 126 -9 14 -36 61 -60 105
-23 44 -48 87 -56 96 -8 8 -14 21 -14 28 0 7 -4 9 -10 6 -5 -3 -10 0 -10 8 0
18 -39 59 -51 52 -5 -4 -9 1 -9 9 0 9 -4 16 -8 16 -5 0 -15 11 -22 25 -7 13
-17 22 -22 19 -4 -3 -8 -1 -8 4 0 6 -11 13 -25 16 -16 4 -25 13 -25 26 0 12
-7 20 -17 20 -9 0 -14 3 -10 6 8 8 -98 94 -116 94 -8 0 -20 7 -27 15 -7 8 -20
15 -29 15 -14 0 -14 2 -1 10 12 8 11 10 -7 10 -13 0 -23 5 -23 10 0 6 -7 10
-16 10 -9 0 -24 8 -33 18 -28 30 -219 115 -341 151 -41 13 -83 27 -92 32 -10
5 -27 9 -38 9 -11 0 -28 4 -38 9 -9 5 -37 15 -62 21 -25 7 -58 17 -75 21 -57
16 -204 49 -219 49 -22 0 -66 22 -66 33 0 11 -69 90 -84 96 -6 2 -19 12 -30
23 -17 16 -37 18 -160 17 -82 0 -156 -5 -176 -12z m383 -60 c7 -7 26 -31 44
-54 32 -40 32 -44 48 -219 30 -331 32 -339 34 -109 1 173 4 215 17 233 21 30
38 28 30 -3 -7 -26 -8 -25 55 -30 9 0 24 -7 34 -15 10 -8 19 -10 23 -4 12 16
63 9 74 -9 6 -12 16 -16 29 -12 13 5 19 2 17 -7 -2 -9 9 -13 37 -14 22 0 58
-6 79 -12 22 -6 42 -9 46 -7 4 3 13 -1 19 -9 7 -8 28 -17 49 -21 20 -3 75 -26
122 -49 47 -24 90 -42 96 -39 6 2 17 -3 24 -12 7 -8 19 -15 28 -15 8 0 23 -7
32 -15 10 -9 40 -24 69 -34 28 -10 48 -20 45 -24 -3 -3 3 -10 14 -16 35 -18
84 -70 77 -81 -4 -7 -1 -10 9 -8 26 5 74 -34 80 -64 3 -18 15 -32 30 -37 13
-5 26 -21 30 -35 3 -14 11 -26 16 -26 6 0 15 -12 21 -26 5 -15 12 -24 15 -21
8 8 54 -48 54 -66 0 -8 18 -35 40 -60 22 -25 40 -55 40 -66 0 -12 7 -24 15
-27 8 -4 15 -15 15 -25 0 -11 7 -22 15 -25 8 -4 15 -12 15 -19 0 -7 9 -32 20
-56 11 -24 20 -58 20 -75 0 -17 7 -37 15 -44 8 -7 15 -21 15 -31 0 -11 5 -19
10 -19 6 0 10 -20 10 -44 0 -25 -4 -48 -10 -51 -14 -8 -13 -62 1 -67 11 -4 33
-168 24 -177 -3 -2 4 -10 14 -18 17 -11 18 -18 10 -46 -5 -17 -9 -49 -7 -69 1
-20 -1 -40 -5 -44 -4 -4 -4 -51 -1 -106 4 -67 2 -98 -5 -98 -6 0 -11 -7 -11
-15 0 -8 5 -15 10 -15 18 0 11 -18 -17 -47 -30 -30 -76 -37 -233 -35 -383 3
-453 2 -466 -9 -7 -6 -17 -8 -21 -6 -5 3 -33 2 -63 -2 -36 -5 47 -10 245 -15
619 -16 725 -23 725 -46 0 -6 -12 -15 -27 -21 -22 -8 -25 -12 -13 -20 11 -8
12 -12 3 -15 -7 -3 -10 -11 -7 -19 11 -28 -98 -32 -671 -27 -110 1 -333 -4
-495 -12 -162 -8 -329 -13 -370 -12 l-75 1 -5 38 -5 38 -39 -54 c-57 -79 -69
-84 -223 -86 -144 -2 -185 8 -198 51 -9 28 -44 68 -61 68 -7 0 -15 18 -19 39
-3 22 -12 47 -19 57 -13 16 -15 15 -30 -14 -9 -18 -21 -32 -26 -32 -6 0 -10
-11 -10 -25 0 -14 -5 -25 -11 -25 -6 0 -3 -7 5 -16 21 -21 20 -24 -8 -24 -19
0 -26 7 -31 30 -5 23 -11 29 -23 26 -59 -17 -74 -18 -92 -1 -14 13 -36 16 -97
16 -43 -1 -109 1 -148 5 -131 10 -656 13 -650 4 3 -5 -6 -12 -20 -16 -30 -7
-55 -39 -55 -71 0 -22 -3 -23 -92 -24 -51 -1 -118 -3 -148 -5 -30 -2 -100 -5
-155 -8 l-100 -4 29 23 c30 24 28 45 -5 45 -18 0 -37 25 -27 35 8 8 174 25
301 30 73 4 182 10 242 16 61 5 139 9 175 9 37 0 70 4 75 9 6 5 86 11 178 14
93 3 171 8 174 11 4 3 -14 6 -40 6 -33 0 -49 5 -56 18 -9 14 -10 14 -11 2 0
-12 -10 -16 -42 -15 -60 2 -65 4 -48 15 8 5 22 7 31 4 10 -2 19 2 23 12 5 13
2 15 -17 10 -25 -6 -48 12 -60 47 -8 21 -21 22 -37 2 -16 -19 -30 -19 -30 0 0
9 -7 18 -15 21 -8 4 -15 12 -15 20 0 17 -5 17 -33 3 -19 -9 -20 -8 -6 3 17 14
14 38 -8 51 -11 7 -11 11 2 23 17 17 12 34 -11 34 -8 0 -14 5 -14 11 0 5 -5 7
-10 4 -7 -4 -7 -12 0 -24 5 -10 6 -21 3 -25 -11 -10 -43 26 -43 48 -1 20 -2
20 -14 4 -7 -10 -18 -18 -25 -18 -6 0 -11 -9 -11 -20 0 -11 4 -20 8 -20 11 0
13 -88 2 -95 -6 -3 -10 -1 -10 4 0 6 -4 11 -9 11 -19 0 -18 -72 2 -97 13 -16
16 -28 9 -35 -20 -20 -552 -38 -552 -18 0 6 7 21 15 33 9 15 16 61 20 132 12
224 14 248 24 258 6 6 11 23 11 38 0 40 20 91 48 122 20 21 35 27 68 27 24 0
46 -5 49 -10 5 -8 11 -7 20 0 10 8 20 8 37 -1 13 -7 35 -12 51 -10 22 2 27 -1
27 -21 0 -31 34 -53 52 -34 11 11 16 11 35 -1 12 -8 27 -12 33 -8 21 13 31 -6
16 -31 -17 -25 -21 -48 -8 -40 5 3 19 -6 31 -20 17 -20 26 -23 34 -15 9 9 8
14 -3 21 -8 5 -18 6 -22 4 -4 -3 -8 2 -8 11 0 8 7 18 16 22 8 3 13 12 10 19
-3 7 1 20 9 28 13 12 11 19 -10 50 -31 45 -32 70 -3 90 21 15 21 16 4 35 -13
14 -17 34 -15 73 1 29 -4 65 -11 81 -16 32 -3 122 18 122 6 0 11 5 10 10 -2 6
-6 9 -10 7 -12 -3 -10 16 2 23 15 9 12 43 -5 52 -19 11 -9 83 11 83 8 0 14 10
14 24 0 13 7 29 16 37 20 17 44 63 44 87 0 10 16 37 36 60 19 23 31 42 25 42
-24 0 -9 21 19 27 32 6 39 20 15 29 -24 10 -19 51 8 58 21 5 71 89 66 112 -4
22 3 32 26 38 15 4 25 13 25 25 0 24 23 43 43 35 8 -3 18 -1 22 5 3 6 15 11
26 11 10 0 19 7 19 15 0 9 12 20 26 25 14 6 28 19 31 30 3 12 14 20 28 20 12
0 30 9 40 20 10 12 24 19 31 16 7 -3 28 5 47 18 18 13 52 26 76 30 23 3 52 13
64 20 36 22 103 28 117 11 7 -8 20 -15 30 -15 22 0 30 -52 30 -189 0 -53 5
-148 10 -211 7 -83 14 -971 10 -1200 0 -8 4 -40 9 -70 5 -30 10 -87 10 -127 1
-39 6 -75 11 -78 8 -5 8 -11 0 -20 -8 -9 -7 -14 4 -18 9 -4 18 -2 21 3 9 14 4
255 -6 298 -5 22 -4 38 1 40 13 5 13 42 1 42 -6 0 -8 43 -5 103 7 139 7 153
-2 816 -6 499 -5 583 7 579 8 -2 15 -17 17 -31 2 -15 7 -27 12 -27 9 0 16 33
31 135 5 39 13 95 17 125 l8 55 13 -44 c16 -58 31 -311 39 -671 l7 -295 5 515
5 515 84 0 c59 0 86 4 88 13 18 52 36 -56 53 -308 20 -308 22 -332 30 -320 4
6 6 46 5 88 -16 464 -16 509 -6 535 12 30 17 33 34 14z m-1505 -1609 c18 -18
15 -28 -8 -28 -13 0 -20 7 -20 20 0 23 10 26 28 8z m3477 -528 c-3 -5 -10 -10
-16 -10 -5 0 -9 5 -9 10 0 6 7 10 16 10 8 0 12 -4 9 -10z m-2365 -119 c0 -6
-4 -13 -10 -16 -5 -3 -10 1 -10 9 0 9 5 16 10 16 6 0 10 -4 10 -9z m2205 -161
l30 -8 -35 -1 c-23 -1 -47 -12 -70 -31 -19 -17 -40 -30 -47 -30 -10 0 -11 -5
-3 -19 12 -24 13 -74 1 -67 -5 3 -11 -5 -13 -19 -4 -19 -1 -25 12 -25 10 0 23
-6 29 -14 16 -19 -79 -24 -568 -31 -206 -3 -378 -8 -382 -11 -10 -6 -1027 -6
-1099 0 -42 3 -109 24 -84 25 7 1 15 8 18 17 5 13 2 15 -16 11 -12 -4 -27 -2
-34 4 -13 10 -44 2 -44 -12 0 -5 7 -9 15 -9 22 0 18 -17 -5 -23 -29 -7 -54 15
-46 41 4 12 14 22 22 22 8 0 14 7 14 15 0 8 -7 15 -15 15 -8 0 -15 -4 -15 -10
0 -12 -65 -24 -80 -15 -8 5 -5 11 7 20 25 19 11 28 -23 14 -40 -15 -114 -21
-114 -9 0 6 7 10 15 10 8 0 15 5 15 10 0 13 -36 13 -60 0 -11 -6 -17 -17 -14
-25 4 -9 0 -15 -9 -15 -10 0 -13 8 -9 25 3 17 0 25 -9 26 -8 1 -21 2 -29 3 -8
2 -25 3 -37 4 -15 1 -21 7 -17 17 5 11 -2 15 -27 16 -19 0 -71 4 -117 8 -46 3
-86 3 -89 -2 -2 -4 -13 -5 -23 -2 -34 11 -85 14 -281 20 l-196 6 -26 -35 c-15
-19 -24 -41 -22 -49 8 -20 -12 -101 -25 -105 -7 -3 1 -13 16 -23 26 -17 27
-19 9 -26 -25 -10 -374 -10 -398 -1 -17 7 -17 9 1 28 18 19 18 26 6 103 -10
61 -10 83 -2 89 23 13 88 18 473 33 72 3 294 7 495 11 201 3 430 9 510 13 80
4 164 5 187 3 38 -4 43 -8 57 -43 11 -27 22 -39 36 -39 11 0 20 -7 20 -15 0
-23 29 -30 44 -10 12 16 13 16 30 -1 14 -14 22 -15 36 -6 11 6 43 9 79 6 49
-3 61 -1 61 10 0 8 9 17 20 21 11 3 33 23 50 43 l30 37 478 5 c751 8 1234 8
1267 0z m-2365 -210 c0 -5 -4 -10 -10 -10 -5 0 -10 5 -10 10 0 6 5 10 10 10 6
0 10 -4 10 -10z m2340 -125 c0 -12 7 -25 15 -29 8 -3 15 -16 15 -29 0 -30 -73
-86 -166 -128 -121 -53 -128 -56 -181 -74 -51 -16 -88 -49 -77 -67 3 -5 -3
-17 -14 -26 -11 -10 -22 -29 -24 -42 -2 -15 -9 -24 -17 -22 -9 2 -12 -4 -8
-18 3 -11 1 -22 -4 -25 -4 -3 -6 -12 -2 -20 11 -31 -6 -64 -39 -73 -35 -9 -50
-32 -21 -32 34 0 25 -38 -12 -51 -19 -7 -32 -16 -29 -21 3 -5 10 -6 15 -3 15
10 10 -12 -6 -25 -17 -14 -20 -37 -6 -42 6 -1 12 -15 15 -30 3 -20 -1 -30 -20
-43 -21 -13 -24 -23 -24 -63 1 -26 0 -57 -2 -70 -5 -24 -65 -81 -83 -77 -5 1
-6 0 -2 -3 4 -2 -34 -47 -85 -101 -135 -140 -198 -239 -242 -381 -42 -131 -59
-213 -62 -290 -1 -41 -5 -82 -7 -90 -16 -46 -35 -249 -57 -605 -17 -273 -19
-312 -25 -475 -4 -85 -8 -173 -10 -195 -2 -22 -6 -87 -10 -145 -8 -140 -11
-154 -31 -138 -40 34 -131 159 -148 205 -11 28 -16 114 -20 338 -4 165 -8 320
-11 345 -2 25 -7 272 -11 550 -4 278 -8 523 -9 545 -2 22 -6 229 -9 460 -3
231 -9 443 -12 471 -8 70 -10 69 166 94 36 5 94 16 130 24 36 9 79 16 96 16
18 0 54 6 80 14 27 8 108 25 179 39 72 14 148 31 170 37 22 6 58 15 80 20 22
5 63 16 90 25 28 10 55 18 60 20 39 8 103 27 117 35 10 6 24 10 32 10 20 0
193 87 202 102 4 6 6 36 5 66 -1 36 1 52 8 47 6 -3 11 -17 11 -30z m1079 -62
c-13 -15 -19 -16 -38 -4 -10 7 -11 13 -1 31 11 21 12 21 31 4 14 -13 16 -20 8
-31z m-4939 -81 c0 -13 -3 -12 -20 3 -11 10 -17 22 -14 27 8 12 34 -11 34 -30z
m-593 -14 c-3 -7 -5 -2 -5 12 0 14 2 19 5 13 2 -7 2 -19 0 -25z m808 -104
c121 -42 253 -72 264 -61 17 17 42 0 36 -25 -4 -18 1 -28 25 -43 19 -13 30
-28 30 -44 0 -13 11 -37 26 -53 14 -17 28 -44 31 -60 3 -16 12 -32 19 -35 8
-3 14 -15 14 -27 0 -13 11 -43 25 -67 13 -24 31 -59 39 -76 8 -18 19 -33 24
-33 5 0 12 -19 15 -43 7 -49 40 -129 62 -147 8 -7 15 -18 15 -26 0 -27 33
-109 49 -121 9 -7 12 -13 8 -13 -5 0 5 -19 22 -42 17 -23 31 -50 31 -59 0 -10
20 -47 45 -83 25 -37 45 -71 45 -77 0 -7 9 -26 20 -44 21 -33 80 -191 80 -212
0 -7 -4 -13 -10 -13 -5 0 -10 7 -10 15 0 8 -4 23 -9 33 -5 9 -13 28 -19 42
-59 151 -147 278 -263 381 -132 117 -318 255 -447 332 -108 64 -139 85 -174
116 -21 18 -38 38 -38 45 0 6 -7 25 -16 41 -9 17 -18 50 -20 74 -3 25 -9 51
-15 58 -6 7 -14 43 -16 80 -3 38 -9 73 -14 79 -5 5 -6 28 -3 50 4 29 3 35 -5
24 -9 -12 -11 -10 -12 13 -2 41 -3 42 -22 61 -29 30 -9 35 41 11 26 -13 83
-35 127 -51z m4046 39 c1 -10 5 -65 10 -123 17 -210 20 -299 9 -319 -7 -13 -7
-22 0 -26 5 -3 10 -33 10 -65 0 -48 -4 -61 -19 -69 -26 -14 -30 -5 -18 35 9
29 8 40 -7 65 -13 22 -15 33 -7 43 17 20 20 105 5 134 -8 15 -10 30 -4 37 10
12 8 91 -3 101 -4 4 -4 29 -1 56 5 34 3 48 -5 48 -7 0 -11 6 -10 13 3 27 -2
35 -26 41 -24 6 -33 25 -18 39 3 4 24 7 45 7 29 0 38 -4 39 -17z m-711 -68 c0
-8 -9 -15 -20 -15 -17 0 -19 2 -8 15 17 19 28 19 28 0z m-2920 -71 c14 -1 59
-7 100 -13 41 -7 100 -14 130 -17 30 -2 80 -9 110 -14 60 -11 285 -39 365 -46
28 -2 69 -7 93 -10 l42 -6 0 -67 c0 -81 -10 -98 -25 -39 -7 31 -17 46 -36 55
-33 16 -179 43 -233 43 -22 0 -53 4 -70 9 -17 6 -65 15 -106 21 -41 7 -95 15
-120 20 -25 5 -79 14 -120 20 -41 7 -84 16 -95 20 -11 5 -37 11 -57 15 -37 6
-46 14 -31 29 4 4 12 1 18 -6 5 -7 21 -14 35 -14z m-856 -203 c5 -9 16 -23 25
-32 9 -9 23 -25 31 -35 8 -11 94 -118 191 -239 97 -121 187 -229 200 -241 13
-11 58 -40 99 -64 41 -24 107 -63 146 -87 39 -24 74 -43 79 -43 29 0 298 -209
378 -294 67 -71 139 -176 155 -226 14 -45 77 -345 91 -430 6 -36 15 -112 21
-170 6 -58 15 -139 20 -180 5 -41 12 -109 15 -150 7 -85 59 -546 75 -660 15
-109 32 -115 30 -10 -3 113 -2 116 11 104 14 -15 13 -182 -2 -200 -17 -20 -35
-17 -56 9 -10 13 -24 26 -30 28 -6 2 -84 67 -174 144 -89 77 -196 167 -238
199 -99 77 -423 353 -441 376 -3 4 -61 56 -130 116 -69 60 -159 140 -200 177
-41 38 -91 77 -111 87 -19 10 -41 26 -49 35 -10 13 -15 13 -22 3 -5 -9 -7 -5
-5 11 2 13 10 29 18 35 29 22 60 124 83 271 8 50 17 89 26 110 8 19 26 135 32
204 3 38 -17 54 -27 22 -8 -27 -45 -29 -38 -2 3 11 -4 28 -16 40 -19 19 -13
39 9 26 6 -3 10 3 10 14 0 12 -7 21 -15 21 -18 0 -19 14 -4 41 6 12 8 27 5 36
-5 13 -9 13 -23 2 -15 -13 -16 -11 -10 13 4 15 3 30 -4 33 -5 4 -9 19 -7 34 2
19 -5 35 -23 52 -14 13 -29 36 -33 52 -4 18 -13 27 -26 27 -11 0 -20 7 -20 15
0 8 9 15 20 15 11 0 20 4 20 10 0 5 -6 7 -13 4 -7 -2 -23 -1 -36 4 l-22 8 25
14 c28 14 34 30 14 30 -10 0 -10 2 -1 8 23 15 18 35 -9 39 -22 3 -28 0 -28
-15 0 -15 -7 -18 -37 -18 l-38 1 -2 -57 c-1 -32 2 -60 7 -63 5 -3 7 -12 4 -19
-3 -7 -7 -51 -10 -97 -9 -185 -21 -322 -23 -284 -5 65 -7 859 -3 877 6 26 29
-1 34 -38 4 -34 20 -35 29 -2 l6 23 6 -25 c3 -14 5 -44 4 -67 -1 -32 4 -48 23
-68 19 -21 27 -23 35 -13 5 7 24 18 40 23 19 7 31 18 33 33 2 12 9 22 17 22
17 0 48 47 40 61 -4 5 -2 16 5 23 8 11 -2 28 -50 77 -53 55 -64 61 -78 51 -9
-7 -29 -18 -44 -25 -15 -6 -32 -23 -37 -37 l-9 -25 -7 33 c-4 17 -13 32 -21
32 -20 0 -23 12 -14 60 5 25 5 50 0 55 -10 13 -22 160 -13 168 6 7 69 -60 87
-92z m4330 -33 c-2 -40 -4 -75 -5 -78 -1 -3 -1 -264 0 -580 2 -689 -5 -930
-26 -930 -11 0 -13 -7 -8 -30 7 -31 -8 -43 -19 -15 -3 8 -12 15 -21 15 -13 0
-13 -3 -3 -20 7 -11 20 -20 28 -20 22 -1 -49 -30 -72 -30 -11 0 -22 9 -25 20
-3 11 -9 20 -14 20 -21 0 -58 102 -84 230 -8 36 -19 83 -25 105 -22 75 -51
260 -51 318 0 41 -4 60 -15 64 -20 7 -7 23 20 23 16 0 25 9 34 33 17 47 15 70
-7 87 -23 16 -18 30 10 30 23 0 24 4 2 42 -14 23 -15 32 -5 35 18 7 15 31 -8
50 -11 10 -20 21 -20 24 0 14 35 15 52 1 15 -12 16 -8 14 47 -2 42 1 65 10 72
19 16 74 113 74 131 0 8 -9 25 -20 38 -11 13 -20 24 -20 25 0 1 9 21 21 45 18
37 23 41 31 27 13 -23 28 -12 20 15 -3 14 -2 19 6 14 7 -4 12 -1 13 6 0 10 2
10 6 1 6 -15 43 -18 43 -3 0 15 -33 50 -47 50 -7 0 -13 5 -13 10 0 6 4 10 9
10 5 0 11 9 14 20 7 27 25 25 37 -2 10 -26 13 -18 10 28 -1 18 3 35 9 39 6 3
11 15 11 26 0 18 26 79 34 79 1 0 2 -33 0 -72z m-2647 -90 c-2 -13 -4 -5 -4
17 -1 22 1 32 4 23 2 -10 2 -28 0 -40z m23 -189 c0 -5 -4 -9 -10 -9 -5 0 -10
7 -10 16 0 8 5 12 10 9 6 -3 10 -10 10 -16z m-1686 -90 c-8 -13 -24 -1 -24 18
0 13 3 13 15 3 8 -7 12 -16 9 -21z m1688 -201 c0 -123 3 -250 6 -283 10 -148
13 -590 3 -580 -6 6 -11 99 -12 244 -1 169 -5 244 -15 267 -7 17 -10 34 -7 38
5 5 5 236 0 366 -3 76 4 170 13 170 6 0 11 -82 12 -222z m2259 119 c-8 -8 -11
-7 -11 4 0 9 3 19 7 23 4 4 9 2 11 -4 3 -7 -1 -17 -7 -23z m-371 -237 c0 -5
-7 -10 -15 -10 -8 0 -15 5 -15 10 0 6 7 10 15 10 8 0 15 -4 15 -10z m-78 -52
c-31 -30 -46 -38 -54 -30 -8 8 3 19 38 41 26 17 50 31 53 31 3 0 -13 -19 -37
-42z m476 11 c-2 -6 -8 -10 -13 -10 -5 0 -11 4 -13 10 -2 6 4 11 13 11 9 0 15
-5 13 -11z m-370 -56 c11 -27 24 -58 27 -70 8 -28 25 -30 25 -3 0 11 3 20 8
20 10 0 32 -51 26 -61 -3 -5 7 -9 21 -9 21 0 26 -4 25 -22 -3 -36 -1 -48 10
-48 6 0 10 10 10 23 0 17 2 19 10 7 5 -8 7 -25 3 -37 -3 -13 2 -41 11 -63 9
-22 16 -52 16 -65 0 -14 5 -25 10 -25 6 0 10 -22 10 -50 0 -27 5 -50 10 -50 6
0 10 -9 10 -20 0 -11 4 -20 9 -20 5 0 12 -7 15 -16 3 -8 2 -12 -4 -9 -15 10
-12 -33 5 -59 11 -16 14 -38 10 -75 -3 -35 0 -62 10 -81 11 -22 12 -28 3 -25
-20 7 -39 -9 -43 -36 -14 -102 -19 -126 -28 -137 -7 -9 -4 -19 12 -35 29 -32
28 -51 -4 -43 -22 6 -25 3 -25 -18 0 -14 -4 -28 -10 -31 -16 -10 -12 -65 5
-65 8 0 15 8 16 18 0 9 5 3 10 -15 8 -26 5 -40 -16 -79 -14 -26 -25 -42 -25
-35 0 7 -4 9 -10 6 -5 -3 -10 -15 -10 -25 0 -10 -4 -20 -8 -22 -5 -1 -26 -25
-46 -53 -58 -76 -165 -185 -183 -185 -7 0 -32 -32 -33 -43 0 -4 13 5 30 20 29
27 33 28 106 23 l77 -5 41 52 c22 29 46 53 53 53 17 0 17 -37 1 -47 -7 -4 -19
-19 -27 -33 -8 -14 -21 -36 -30 -50 -9 -13 -11 -21 -5 -17 7 4 14 0 18 -8 7
-19 -25 -36 -74 -38 -50 -2 -51 -18 -5 -63 43 -41 43 -48 6 -42 -26 4 -28 2
-17 -14 6 -10 20 -21 31 -24 11 -3 26 -17 33 -32 11 -23 10 -29 -5 -39 -14
-11 -10 -13 32 -13 l48 0 -21 23 c-36 38 -25 51 15 18 l23 -19 -26 -46 c-24
-43 -47 -62 -42 -33 2 8 -10 11 -37 10 -22 -1 -34 1 -27 4 14 5 16 23 3 23 -5
0 -12 -8 -16 -17 -3 -10 -17 -31 -31 -48 -21 -26 -26 -28 -37 -15 -7 8 -23 16
-36 18 -33 3 -36 8 -21 27 11 13 10 18 -5 29 -18 13 -17 14 3 36 29 31 28 35
-8 35 -25 0 -28 -3 -23 -22 6 -26 -14 -32 -24 -7 -5 15 -7 15 -15 0 -12 -22
-34 -20 -52 5 -14 21 -15 21 -68 -19 -29 -21 -62 -49 -72 -61 -21 -23 -46 -28
-46 -8 1 28 63 115 158 217 28 31 52 64 52 72 0 28 -76 -18 -95 -58 -17 -35
-432 -450 -441 -441 -2 1 1 45 6 97 5 52 10 138 10 190 1 52 5 129 10 170 11
89 29 388 45 730 2 52 13 149 24 215 11 66 21 145 21 175 0 30 8 78 19 106 33
92 157 258 244 330 27 21 54 44 61 49 6 6 26 20 44 33 25 18 32 19 32 7 0 -21
33 -19 59 4 13 11 29 17 36 15 8 -3 20 4 27 15 20 32 33 26 56 -26z m83 -9
c-5 -16 -10 -21 -10 -12 -1 18 10 51 15 45 2 -1 -1 -16 -5 -33z m307 -67 c4
-22 -27 -35 -38 -16 -10 15 7 42 24 36 6 -2 12 -11 14 -20z m-2764 -183 c3 -8
2 -12 -4 -9 -6 3 -10 10 -10 16 0 14 7 11 14 -7z m136 -101 c0 -37 -18 -35
-22 2 -2 20 -2 38 1 40 8 8 21 -18 21 -42z m4310 -59 c0 -15 -23 -24 -37 -16
-5 4 -12 15 -16 25 -3 9 -13 17 -22 17 -26 0 -15 27 19 46 17 9 22 6 38 -25
10 -19 18 -41 18 -47z m-4356 10 c3 -9 6 -28 6 -42 -1 -26 -1 -26 -15 7 -8 18
-15 37 -15 42 0 15 17 10 24 -7z m53 -51 c-3 -10 -5 -2 -5 17 0 19 2 27 5 18
2 -10 2 -26 0 -35z m26 -154 c-8 -29 -13 -23 -13 14 0 22 3 28 9 18 5 -7 6
-22 4 -32z m304 -81 c-3 -7 -5 -2 -5 12 0 14 2 19 5 13 2 -7 2 -19 0 -25z m13
-49 c0 -11 -4 -17 -10 -14 -5 3 -10 15 -10 26 0 11 5 17 10 14 6 -3 10 -15 10
-26z m5 -189 c1 -72 -2 -133 -6 -135 -8 -5 -18 241 -11 263 10 31 15 -7 17
-128z m-285 90 c0 -5 -2 -10 -4 -10 -3 0 -8 5 -11 10 -3 6 -1 10 4 10 6 0 11
-4 11 -10z m-1515 -29 c3 -5 1 -12 -5 -16 -5 -3 -10 1 -10 9 0 18 6 21 15 7z
m4000 -61 c3 -5 1 -10 -4 -10 -6 0 -11 5 -11 10 0 6 2 10 4 10 3 0 8 -4 11
-10z m-2468 -127 c-3 -10 -5 -2 -5 17 0 19 2 27 5 18 2 -10 2 -26 0 -35z
m2600 -15 c-3 -8 -6 -5 -6 6 -1 11 2 17 5 13 3 -3 4 -12 1 -19z m-146 -25 c6
-17 4 -20 -12 -16 -23 6 -32 19 -24 34 10 15 27 6 36 -18z m1317 -5 c51 -19
91 -47 209 -146 162 -138 181 -158 207 -222 10 -25 36 -85 57 -133 22 -48 39
-100 39 -114 0 -15 4 -40 9 -57 34 -114 42 -150 55 -226 7 -47 14 -110 15
-140 1 -30 4 -67 7 -82 4 -21 2 -28 -10 -28 -9 0 -16 -4 -16 -10 0 -5 5 -10
11 -10 19 0 0 -73 -23 -91 -18 -14 -21 -29 -23 -108 -3 -72 0 -93 11 -98 10
-4 14 -25 14 -83 0 -57 4 -83 15 -94 13 -13 12 -17 -12 -34 -32 -21 -77 -40
-113 -47 -28 -6 -271 12 -295 21 -18 7 -21 -31 -3 -42 24 -15 206 -15 335 0
143 16 192 33 224 77 36 51 53 30 24 -29 -16 -31 -60 -63 -125 -92 -29 -12
-35 -21 -36 -47 -2 -25 3 -33 20 -35 11 -2 -15 -13 -59 -23 -99 -24 -311 -28
-324 -6 -13 21 -1 52 25 62 37 13 28 29 -16 29 -69 0 -85 22 -239 324 -63 124
-69 133 -113 199 -21 31 -43 57 -48 57 -6 0 -10 7 -10 15 0 8 -9 19 -20 25
-11 6 -20 18 -20 26 0 8 -11 30 -25 48 -14 18 -25 40 -25 49 0 10 -4 17 -9 17
-5 0 -23 22 -40 50 -17 27 -38 58 -46 67 -9 10 -31 41 -49 68 -22 33 -40 50
-53 50 -28 0 -63 33 -63 59 0 21 42 218 62 291 19 66 89 218 113 245 12 14 31
43 41 65 21 45 96 122 132 136 13 5 36 9 52 9 15 0 30 7 34 15 7 21 30 19 104
-7z m-5409 -12 c24 -29 88 -367 111 -581 16 -160 15 -241 -5 -273 -34 -51
-152 -207 -168 -221 -10 -7 -17 -18 -17 -24 0 -11 -80 -120 -92 -125 -5 -2 -8
-9 -8 -17 0 -7 -7 -18 -15 -25 -12 -10 -15 -10 -15 2 0 8 4 18 9 23 19 21 22
53 5 59 -22 8 -40 -4 -23 -16 10 -7 9 -8 -5 -4 -11 4 -23 1 -28 -6 -6 -10 -8
-9 -8 2 0 9 39 74 88 145 160 239 155 229 153 298 -2 66 -35 441 -51 567 -11
89 -13 194 -3 203 11 12 60 7 72 -7z m1898 -8 c-3 -8 -6 -5 -6 6 -1 11 2 17 5
13 3 -3 4 -12 1 -19z m2133 2 c0 -5 -4 -10 -10 -10 -5 0 -10 5 -10 10 0 6 5
10 10 10 6 0 10 -4 10 -10z m-4210 -10 c0 -5 -7 -10 -15 -10 -8 0 -15 5 -15
10 0 6 7 10 15 10 8 0 15 -4 15 -10z m-40 -8 c0 -5 -16 -14 -36 -20 -29 -9
-33 -8 -24 3 6 8 21 16 33 18 12 2 23 5 25 6 1 0 2 -3 2 -7z m4300 3 c0 -9
-65 -64 -69 -59 -6 5 50 64 61 64 4 0 8 -2 8 -5z m160 -25 c0 -5 -7 -10 -16
-10 -8 0 -12 5 -9 10 3 6 10 10 16 10 5 0 9 -4 9 -10z m-4550 -20 c0 -5 -5
-10 -11 -10 -5 0 -7 5 -4 10 3 6 8 10 11 10 2 0 4 -4 4 -10z m183 -53 c2 -12
12 -49 20 -82 9 -33 21 -106 27 -162 5 -57 15 -149 21 -205 17 -169 17 -219
-2 -265 -10 -23 -27 -48 -38 -55 -12 -7 -21 -18 -21 -25 0 -7 -4 -13 -8 -13
-5 0 -23 -20 -41 -45 -18 -25 -44 -53 -57 -62 -23 -14 -26 -14 -44 2 -10 9
-23 14 -29 11 -5 -4 -12 -2 -16 4 -7 12 -13 116 -16 275 -2 145 -4 137 -20
-73 -8 -116 -16 -165 -25 -169 -10 -4 -10 -10 -2 -29 17 -37 -16 -66 -78 -68
-35 -2 -51 -8 -58 -21 -17 -29 -58 -75 -68 -75 -4 0 -8 5 -8 10 0 6 6 10 13
10 14 0 37 40 37 64 0 7 14 25 30 39 53 47 38 58 -46 32 -27 -8 -60 -15 -72
-15 -36 0 -82 -37 -82 -65 0 -14 -14 -39 -35 -59 -19 -20 -35 -40 -35 -46 0
-5 -4 -10 -9 -10 -5 0 -31 -20 -57 -45 -45 -44 -64 -54 -64 -36 0 14 76 96
104 110 30 16 35 51 10 72 -8 7 -13 21 -11 31 3 10 2 18 -2 18 -11 0 -81 -77
-113 -125 l-27 -39 -10 24 c-9 22 -10 21 -10 -17 -1 -23 4 -45 9 -48 6 -3 10
-16 10 -28 0 -12 11 -42 25 -66 14 -23 25 -51 25 -62 0 -27 39 -44 94 -40 44
3 48 1 41 -15 -4 -11 -9 -36 -12 -56 -4 -29 -2 -39 11 -44 18 -7 22 -39 6 -49
-17 -11 -8 -68 12 -73 35 -9 20 -33 -19 -32 -21 1 -70 -2 -110 -6 -56 -5 -86
-3 -137 12 l-64 18 -8 56 c-12 92 -5 477 11 565 18 105 33 161 56 211 11 23
19 44 19 48 0 4 21 50 47 102 50 101 73 132 73 96 0 -12 -4 -24 -10 -27 -5 -3
-10 -15 -10 -26 0 -10 -9 -45 -20 -76 -23 -68 -36 -156 -46 -308 -5 -87 -4
-108 6 -98 14 13 40 130 33 149 -6 17 25 273 39 309 19 53 49 113 67 137 10
13 31 46 47 73 15 28 32 55 36 60 122 162 224 239 289 216 19 -6 31 -6 35 0 4
6 11 6 19 -1 11 -9 23 -2 57 33 24 24 55 48 68 52 14 4 42 23 63 42 36 32 40
33 57 18 10 -9 20 -26 23 -38z m1786 -24 c-1 -44 -3 -52 -8 -33 -8 24 -4 90 5
90 2 0 4 -26 3 -57z m-2439 -22 c0 -5 -7 -11 -14 -14 -10 -4 -13 -1 -9 9 6 15
23 19 23 5z m4925 0 c3 -5 1 -12 -5 -16 -5 -3 -10 1 -10 9 0 18 6 21 15 7z
m-65 -32 c0 -6 -4 -7 -10 -4 -5 3 -10 11 -10 16 0 6 5 7 10 4 6 -3 10 -11 10
-16z m-4908 -11 c-7 -7 -12 -8 -12 -2 0 14 12 26 19 19 2 -3 -1 -11 -7 -17z
m4878 -24 c0 -9 -9 -18 -20 -21 -11 -3 -18 -9 -15 -13 3 -4 -2 -10 -10 -14
-19 -7 -19 -6 1 32 16 34 44 43 44 16z m60 2 c0 -2 -7 -9 -15 -16 -13 -11 -14
-10 -9 4 5 14 24 23 24 12z m-70 -90 c0 -3 -4 -8 -10 -11 -5 -3 -10 -1 -10 4
0 6 5 11 10 11 6 0 10 -2 10 -4z m2520 -36 c0 -5 -4 -10 -10 -10 -5 0 -10 5
-10 10 0 6 5 10 10 10 6 0 10 -4 10 -10z m-2500 -33 c0 -7 -9 -19 -20 -27 -14
-10 -17 -17 -8 -27 15 -19 38 -16 39 5 0 9 6 1 13 -18 9 -23 19 -34 29 -32 11
2 15 -2 11 -13 -3 -8 -11 -15 -18 -15 -10 0 -41 -44 -58 -82 -12 -29 -17 -21
-11 17 4 23 2 35 -6 35 -6 0 -11 10 -11 23 0 13 -5 28 -12 35 -7 7 -8 12 -4
12 5 0 2 7 -5 17 -11 13 -11 17 -1 21 7 2 19 19 27 39 13 32 35 38 35 10z
m-2383 -9 c-3 -8 -6 -5 -6 6 -1 11 2 17 5 13 3 -3 4 -12 1 -19z m2298 3 c3 -5
1 -12 -5 -16 -5 -3 -10 1 -10 9 0 18 6 21 15 7z m153 -9 c2 -7 -6 -12 -17 -12
-21 0 -27 11 -14 24 9 9 26 2 31 -12z m235 -37 c-3 -9 -8 -14 -10 -11 -3 3 -2
9 2 15 9 16 15 13 8 -4z m-3393 -113 c0 -7 7 -15 15 -18 15 -6 45 -58 45 -79
0 -7 9 -20 21 -31 26 -24 49 -67 49 -92 0 -11 6 -25 14 -32 8 -6 12 -18 9 -26
-3 -8 1 -14 11 -14 8 0 20 -9 26 -19 13 -26 13 -32 -2 -30 -7 1 -21 1 -30 0
-23 -1 -12 -31 11 -31 10 0 23 -11 29 -25 24 -51 8 -120 -17 -78 -10 17 -12
17 -26 -2 -15 -19 -16 -19 -21 3 -7 25 -15 27 -32 10 -10 -10 -15 -10 -22 2
-6 9 -6 16 0 18 6 2 10 10 10 18 0 19 18 18 22 -2 2 -13 7 -11 26 8 20 22 20
25 5 25 -48 2 -90 -17 -105 -49 -14 -28 -17 -30 -17 -11 -1 38 17 73 39 73 37
0 21 16 -29 29 -42 11 -47 15 -44 35 3 16 -3 27 -22 40 -40 26 -47 11 -37 -75
6 -45 6 -81 0 -92 -5 -9 -7 -21 -4 -26 3 -4 8 -138 10 -296 3 -180 9 -292 16
-299 5 -5 10 -16 10 -24 0 -12 -3 -12 -15 -2 -8 7 -15 9 -15 4 0 -19 -17 -34
-32 -29 -13 5 -14 13 -6 48 6 27 7 246 3 604 -4 309 -3 567 1 574 5 9 22 -4
56 -42 26 -30 48 -60 48 -67z m3147 86 c-3 -8 -6 -5 -6 6 -1 11 2 17 5 13 3
-3 4 -12 1 -19z m518 -50 c33 -148 86 -365 106 -438 40 -142 38 -175 -24 -350
-71 -200 -199 -535 -284 -742 -35 -86 -36 -88 -69 -88 -19 0 -34 3 -34 8 0 15
16 29 38 36 12 4 22 14 22 22 0 8 4 12 10 9 6 -3 7 1 4 9 -7 18 -24 22 -24 6
0 -5 -10 -10 -23 -10 -21 0 -23 4 -19 31 3 22 7 27 13 18 9 -14 10 -12 13 23
1 7 -13 12 -34 12 -32 1 -35 4 -38 33 -2 21 -10 34 -23 38 -14 5 -19 15 -19
41 0 24 -5 34 -15 34 -9 0 -15 -6 -14 -12 5 -43 -12 -51 -29 -13 -7 15 -8 26
-1 30 5 4 7 11 3 16 -4 6 -13 4 -24 -6 -17 -15 -21 -15 -49 0 -36 18 -51 13
-51 -16 0 -18 6 -20 43 -17 23 2 42 -1 42 -7 0 -5 -20 -10 -45 -10 -25 0 -50
-4 -56 -8 -14 -8 -20 7 -20 48 1 31 1 31 -36 21 -26 -7 -38 -16 -38 -28 0 -11
-7 -18 -20 -18 -11 0 -20 -4 -20 -10 0 -5 -9 -10 -20 -10 -21 0 -28 24 -10 35
6 3 10 17 10 29 0 15 7 26 20 29 27 7 25 23 -7 53 -27 25 -27 25 -5 31 25 6
26 7 11 35 -8 16 -8 23 2 30 11 8 12 11 1 15 -10 4 -10 10 3 29 14 21 14 24 0
24 -10 0 -15 10 -15 28 0 26 3 28 33 25 63 -7 127 61 127 136 0 19 14 40 46
71 58 57 104 123 104 149 0 11 5 23 10 26 13 8 13 121 0 145 -14 26 4 65 56
120 62 67 210 254 266 337 27 40 53 73 58 73 4 0 16 -33 25 -72z m1885 3 c0
-9 -24 -21 -41 -21 -10 0 -12 33 -3 43 8 8 44 -11 44 -22z m-2340 7 c-1 -18
-39 -62 -47 -54 -3 3 4 14 15 25 12 10 22 23 22 30 0 6 2 11 5 11 3 0 5 -6 5
-12z m54 -48 c6 0 18 6 25 13 11 10 12 9 6 -3 -5 -8 -13 -21 -18 -28 -15 -20
-37 5 -36 42 2 30 2 30 6 4 2 -16 10 -28 17 -28z m2184 18 c-6 -18 -28 -21
-28 -4 0 9 7 16 16 16 9 0 14 -5 12 -12z m-2418 -8 c0 -5 -4 -10 -10 -10 -5 0
-10 5 -10 10 0 6 5 10 10 10 6 0 10 -4 10 -10z m420 -5 c-7 -8 -17 -15 -22
-15 -6 0 -5 7 2 15 7 8 17 15 22 15 6 0 5 -7 -2 -15z m-496 -10 c-4 -8 -10
-12 -15 -9 -11 6 -2 24 11 24 5 0 7 -7 4 -15z m56 -20 c0 -8 -4 -15 -10 -15
-5 0 -10 7 -10 15 0 8 5 15 10 15 6 0 10 -7 10 -15z m-4849 -18 c-10 -9 -11
-8 -5 6 3 10 9 15 12 12 3 -3 0 -11 -7 -18z m2589 -137 c0 -46 -3 -61 -10 -50
-5 8 -10 35 -10 60 -1 25 -5 65 -10 90 -4 25 -5 49 -2 55 10 16 32 -87 32
-155z m2380 120 c0 -20 -5 -30 -15 -30 -15 0 -21 40 -8 53 14 15 23 6 23 -23z
m2211 -3 c-16 -16 -25 -1 -10 16 8 8 16 11 18 5 2 -5 -2 -15 -8 -21z m-2141
19 c0 -2 -3 -11 -6 -20 -9 -23 -24 -20 -24 4 0 11 7 20 15 20 8 0 15 -2 15 -4z
m-236 -45 c-8 -9 -34 10 -34 25 0 16 2 16 19 -2 10 -10 17 -21 15 -23z m-330
-108 c10 -28 52 -69 101 -98 16 -10 16 -14 5 -35 -22 -41 -110 -117 -110 -95
0 7 39 63 57 83 7 7 10 19 7 27 -5 12 -12 12 -42 -4 -21 -10 -46 -28 -56 -40
-11 -12 -24 -21 -30 -21 -6 -1 -20 -19 -31 -42 -11 -22 -24 -39 -30 -37 -5 2
-9 6 -8 9 1 3 5 13 8 23 5 13 2 17 -14 17 -37 0 -26 14 79 101 29 24 7 14 -32
-15 -15 -11 -38 -20 -50 -21 -13 -2 -38 -6 -55 -10 -20 -5 -33 -4 -33 2 0 18
193 194 208 191 8 -2 20 -17 26 -35z m421 7 c-3 -5 -11 -10 -16 -10 -6 0 -7 5
-4 10 3 6 11 10 16 10 6 0 7 -4 4 -10z m-315 -40 c0 -5 -7 -10 -15 -10 -8 0
-15 5 -15 10 0 6 7 10 15 10 8 0 15 -4 15 -10z m-2898 -177 c-1 -134 -8 -199
-22 -208 -17 -10 -23 68 -12 149 6 45 14 107 17 139 11 95 19 56 17 -80z
m3318 112 c7 -9 10 -18 7 -21 -6 -7 -47 18 -47 28 0 14 27 9 40 -7z m-390 -84
c0 -10 -30 -24 -37 -17 -3 3 -2 9 2 15 8 13 35 15 35 2z m-2520 -61 c0 -5 -4
-10 -10 -10 -5 0 -10 5 -10 10 0 6 5 10 10 10 6 0 10 -4 10 -10z m2037 -36
c-3 -3 -12 -4 -19 -1 -8 3 -5 6 6 6 11 1 17 -2 13 -5z m193 -17 c0 -19 -112
-127 -132 -127 -6 0 -9 2 -7 5 61 68 126 134 132 135 4 0 7 -6 7 -13z m177 -3
c9 -23 -11 -38 -26 -20 -13 16 -7 36 10 36 5 0 12 -7 16 -16z m208 6 c3 -5 -1
-10 -10 -10 -9 0 -13 5 -10 10 3 6 8 10 10 10 2 0 7 -4 10 -10z m-525 -10 c0
-5 -4 -10 -10 -10 -5 0 -10 5 -10 10 0 6 5 10 10 10 6 0 10 -4 10 -10z m-2250
-26 c0 -8 -4 -12 -10 -9 -5 3 -10 13 -10 21 0 8 5 12 10 9 6 -3 10 -13 10 -21z
m40 11 c0 -8 -7 -15 -16 -15 -14 0 -14 3 -4 15 7 8 14 15 16 15 2 0 4 -7 4
-15z m2790 1 c0 -2 3 -11 6 -19 3 -10 -14 -28 -53 -56 -32 -22 -63 -41 -69
-41 -6 0 -16 -11 -22 -25 -6 -14 -18 -25 -27 -25 -28 0 -15 25 36 70 28 25 62
57 77 73 23 23 52 36 52 23z m-4180 -31 c0 -8 -7 -15 -15 -15 -16 0 -20 12 -8
23 11 12 23 8 23 -8z m3958 -3 c2 -7 -3 -12 -12 -12 -9 0 -16 7 -16 16 0 17
22 14 28 -4z m-95 -73 c-40 -41 -185 -139 -195 -133 -14 9 -9 24 7 24 9 0 20
11 26 24 6 13 22 29 35 35 13 6 24 17 24 24 0 8 18 19 41 26 22 7 48 21 57 31
11 13 20 16 26 10 7 -7 0 -21 -21 -41z m-2393 1 c0 -5 -4 -10 -10 -10 -5 0
-10 5 -10 10 0 6 5 10 10 10 6 0 10 -4 10 -10z m-1790 -10 c0 -6 -12 -16 -27
-23 -25 -11 -112 -93 -170 -162 -24 -27 -63 -34 -63 -10 0 8 4 15 10 15 5 0
16 14 25 30 9 17 20 30 26 30 6 0 27 16 47 35 20 19 40 35 43 35 3 0 23 14 44
30 38 30 65 38 65 20z m1377 -92 c-2 -18 -4 -6 -4 27 0 33 2 48 4 33 2 -15 2
-42 0 -60z m2903 -8 c0 -5 -5 -10 -11 -10 -5 0 -7 5 -4 10 3 6 8 10 11 10 2 0
4 -4 4 -10z m-2923 -312 c-2 -24 -4 -5 -4 42 0 47 2 66 4 43 2 -24 2 -62 0
-85z m2164 33 c30 -32 63 -71 74 -86 11 -16 46 -59 78 -97 53 -64 72 -108 46
-108 -7 0 -21 -10 -33 -23 -22 -25 -152 -127 -161 -127 -7 0 -173 -129 -177
-138 -2 -4 -25 -26 -52 -49 -50 -44 -86 -55 -86 -27 0 9 -9 29 -21 46 -21 29
-19 52 3 30 7 -7 19 -12 28 -12 15 0 40 42 40 69 0 8 12 33 27 54 l27 39 -28
25 c-34 29 -28 42 8 18 19 -13 50 -18 117 -18 l92 -1 38 42 c21 24 41 56 44
72 6 28 35 47 63 42 6 -2 12 2 12 8 0 15 -33 26 -38 12 -7 -23 -32 -13 -32 13
0 14 5 25 10 25 19 0 10 37 -21 79 -26 37 -34 42 -62 39 -23 -2 -33 1 -35 14
-2 9 4 18 13 20 14 3 13 7 -7 31 l-24 27 -42 -16 c-23 -9 -44 -25 -47 -34 -3
-9 -17 -22 -30 -28 -14 -6 -25 -16 -25 -22 0 -5 -6 -10 -12 -10 -16 0 -65 -60
-78 -95 -13 -34 -13 -81 0 -106 9 -16 7 -19 -9 -19 -11 0 -25 9 -31 20 -8 16
-21 20 -58 21 -46 0 -46 1 -24 16 21 15 31 43 15 43 -16 0 -103 -86 -103 -100
0 -9 9 -21 20 -28 11 -7 20 -17 20 -24 0 -6 -3 -8 -7 -5 -3 4 -11 -1 -18 -10
-15 -20 -35 -9 -35 19 0 11 -8 22 -20 25 -11 3 -20 11 -20 17 0 12 72 76 85
76 6 0 62 41 120 88 6 4 26 19 45 32 19 14 37 28 40 31 11 15 101 79 110 79 5
0 15 8 22 18 16 22 58 52 74 52 6 0 36 -26 65 -59z m-76 -51 c3 -5 2 -10 -4
-10 -5 0 -13 5 -16 10 -3 6 -2 10 4 10 5 0 13 -4 16 -10z m-1990 -80 c3 -5 1
-10 -4 -10 -6 0 -11 5 -11 10 0 6 2 10 4 10 3 0 8 -4 11 -10z m-118 -37 c-3
-10 -5 -4 -5 12 0 17 2 24 5 18 2 -7 2 -21 0 -30z m5713 -24 c0 -5 -4 -9 -10
-9 -5 0 -10 7 -10 16 0 8 5 12 10 9 6 -3 10 -10 10 -16z m-2595 -9 c3 -5 2
-10 -4 -10 -5 0 -13 5 -16 10 -3 6 -2 10 4 10 5 0 13 -4 16 -10z m2549 -16
c11 -27 7 -37 -9 -24 -12 10 -15 10 -15 -4 0 -9 -4 -16 -10 -16 -11 0 -12 6
-4 38 7 25 29 29 38 6z m-7281 -21 c199 -6 244 -14 131 -22 -25 -2 -43 -47
-35 -84 l9 -35 -50 -7 c-93 -13 -356 15 -343 36 4 5 18 9 32 9 21 0 24 3 19
23 -3 12 -6 30 -6 40 0 9 -7 17 -15 17 -22 0 -65 22 -65 33 0 6 24 7 63 3 34
-3 151 -9 260 -13z m3701 -69 c9 -3 16 -10 16 -15 0 -14 -44 -10 -66 6 -18 14
-18 14 8 15 14 0 33 -3 42 -6z m-195 -75 c20 -16 23 -24 15 -37 -19 -30 -52
-41 -85 -29 -32 13 -37 32 -13 65 19 27 51 28 83 1z m1934 -60 c-6 -6 -7 3 -4
23 4 28 6 29 9 9 2 -13 0 -27 -5 -32z m-11 -44 c-2 -14 -6 -25 -8 -25 -2 0 -4
11 -4 25 0 14 4 25 9 25 4 0 6 -11 3 -25z m-3087 -55 c23 -44 19 -59 -22 -76
-21 -9 -45 -20 -54 -25 -12 -5 -22 -2 -35 12 -9 11 -30 19 -47 19 -30 0 -30 0
-11 21 20 22 120 78 141 79 7 0 19 -13 28 -30z m3061 -50 c-16 -68 -21 -78
-29 -58 -4 12 3 39 29 117 2 8 7 12 9 9 3 -3 -1 -33 -9 -68z m-3036 -80 c0
-11 5 -20 10 -20 16 0 12 -14 -10 -38 -25 -26 -60 -29 -60 -6 0 9 -8 23 -17
29 -17 12 -17 14 1 34 26 28 76 29 76 1z m1400 10 c0 -5 4 -10 8 -10 9 0 254
-130 262 -139 3 -3 19 -13 35 -21 17 -8 41 -22 55 -31 54 -36 305 -172 317
-172 6 0 9 -5 6 -10 -3 -5 -27 -6 -54 -3 -33 5 -49 3 -49 -4 0 -7 -6 -10 -12
-7 -7 2 -12 11 -10 21 2 9 -4 16 -13 16 -8 0 -15 5 -15 10 0 6 -4 10 -10 10
-13 0 -13 -27 0 -32 7 -2 6 -10 -3 -22 -16 -22 -37 -14 -37 15 0 11 -4 18 -9
14 -5 -3 -12 -1 -16 5 -8 13 -45 13 -45 0 0 -6 11 -15 25 -20 35 -13 42 -37
17 -61 -27 -24 -42 -24 -35 0 3 13 -5 24 -29 38 -40 24 -63 20 -48 -8 8 -14 7
-19 -3 -19 -18 0 -37 21 -37 42 0 11 -10 20 -25 24 -35 9 -40 1 -18 -32 10
-16 12 -25 5 -20 -9 5 -15 2 -18 -10 -4 -16 -16 -19 -75 -21 -43 -1 -69 2 -69
9 0 5 7 8 15 4 9 -3 19 3 25 14 9 17 7 20 -8 20 -11 0 -25 7 -32 15 -7 8 -21
15 -32 15 -17 0 -36 25 -26 36 3 2 22 -3 42 -11 20 -9 41 -13 46 -10 14 8 0
35 -18 35 -9 0 -31 6 -50 13 -28 10 -36 10 -39 0 -7 -20 -20 -15 -26 8 -4 16
1 23 25 31 l31 11 -22 18 c-12 10 -17 20 -11 24 5 3 10 24 10 46 0 33 3 39 23
40 16 1 18 2 5 6 -20 5 -25 33 -5 33 13 0 -43 49 -57 50 -12 0 -46 31 -46 42
0 4 11 8 25 8 14 0 25 -4 25 -10z m1610 -24 c0 -8 -4 -18 -10 -21 -5 -3 -10 3
-10 14 0 12 5 21 10 21 6 0 10 -6 10 -14z m-30 -116 c-11 -20 -30 -28 -30 -11
0 5 8 26 17 47 17 38 17 38 21 12 2 -15 -2 -36 -8 -48z m-3820 20 c0 -11 -4
-20 -9 -20 -5 0 -7 9 -4 20 3 11 7 20 9 20 2 0 4 -9 4 -20z m305 -10 c21 -41
19 -57 -11 -85 -37 -34 -84 -43 -101 -19 -9 13 -26 19 -50 19 -47 0 -53 20
-11 40 18 8 56 29 83 45 63 37 71 37 90 0z m1325 -60 c0 -5 -5 -10 -11 -10 -5
0 -7 5 -4 10 3 6 8 10 11 10 2 0 4 -4 4 -10z m2168 -42 c-11 -16 -26 -24 -52
-26 -23 -1 -35 2 -31 8 3 5 13 10 21 10 8 0 14 5 14 10 0 6 9 10 20 10 12 0
20 7 20 17 0 13 3 14 11 6 9 -9 8 -18 -3 -35z m-3740 -15 c20 -45 16 -61 -15
-56 -20 3 -24 2 -14 -5 7 -5 10 -15 7 -21 -11 -18 -56 -13 -83 9 -16 13 -34
18 -47 15 -12 -4 -16 -3 -10 2 6 4 15 17 21 27 10 19 83 54 113 55 8 1 21 -11
28 -26z m216 -54 c-9 -10 -21 -19 -26 -19 -15 0 -8 29 9 39 26 14 37 2 17 -20z
m-416 -62 c17 -43 12 -53 -17 -38 -13 7 -22 8 -26 1 -14 -23 -71 7 -62 33 4
13 69 48 81 44 5 -2 15 -20 24 -40z m342 25 c0 -13 -12 -22 -22 -16 -10 6 -1
24 13 24 5 0 9 -4 9 -8z m70 -17 c-7 -8 -17 -15 -23 -15 -5 0 -2 9 8 20 21 23
35 19 15 -5z m3497 -12 c-3 -10 -5 -4 -5 12 0 17 2 24 5 18 2 -7 2 -21 0 -30z
m-4032 -23 c-3 -5 -11 -10 -16 -10 -6 0 -7 5 -4 10 3 6 11 10 16 10 6 0 7 -4
4 -10z m-59 -42 c60 -36 86 -79 72 -118 -5 -13 -12 -27 -16 -30 -4 -3 -20 -21
-36 -39 l-28 -35 7 -195 c6 -194 15 -265 41 -349 8 -23 14 -47 14 -51 0 -5
-21 -40 -47 -77 -26 -38 -117 -208 -203 -379 -149 -295 -200 -422 -258 -630
-32 -112 -51 -182 -55 -205 -11 -48 -48 -205 -53 -222 -3 -10 -21 -25 -40 -34
-19 -9 -34 -20 -34 -25 0 -4 -9 -16 -19 -26 -16 -16 -18 -27 -12 -88 11 -127
8 -181 -13 -204 -11 -12 -26 -19 -33 -16 -8 2 -25 -2 -39 -11 -25 -17 -33 -7
-11 15 10 10 7 17 -14 34 -14 12 -31 41 -38 64 -6 24 -20 47 -31 53 -11 6 -28
30 -39 55 -11 26 -27 45 -35 45 -26 0 -18 18 14 35 17 9 30 19 30 24 0 9 48
41 103 69 31 16 34 30 12 58 -8 10 -15 31 -15 46 0 21 -13 37 -57 71 -32 25
-69 54 -83 66 -37 32 -260 254 -260 259 0 2 13 21 30 42 23 29 160 298 160
315 0 2 22 50 49 107 120 253 183 387 243 518 73 158 88 187 116 207 18 13 40
47 57 90 16 37 37 80 47 95 10 14 18 29 18 32 0 3 22 38 49 78 72 109 101 165
101 199 0 37 21 89 46 110 11 10 50 33 88 54 79 41 92 41 172 -7z m134 2 c0
-5 -4 -10 -10 -10 -5 0 -10 5 -10 10 0 6 5 10 10 10 6 0 10 -4 10 -10z m288
-17 c3 -20 -1 -23 -32 -23 -28 0 -36 4 -36 18 0 26 10 33 40 30 17 -2 26 -10
28 -25z m2162 -6 c0 -22 -11 -27 -33 -16 -16 9 -17 13 -6 20 21 13 39 11 39
-4z m288 1 c-3 -7 -11 -13 -18 -13 -7 0 -15 6 -17 13 -3 7 4 12 17 12 13 0 20
-5 18 -12z m-2548 -33 c0 -8 -7 -15 -15 -15 -9 0 -12 6 -9 15 4 8 10 15 15 15
5 0 9 -7 9 -15z m1065 -22 c-31 -22 -54 -16 -25 6 13 11 29 17 34 14 5 -3 1
-12 -9 -20z m1552 11 c-3 -3 -12 -4 -19 -1 -8 3 -5 6 6 6 11 1 17 -2 13 -5z
m-197 -14 c0 -5 -4 -10 -10 -10 -5 0 -10 5 -10 10 0 6 5 10 10 10 6 0 10 -4
10 -10z m145 0 c3 -5 2 -10 -4 -10 -5 0 -13 5 -16 10 -3 6 -2 10 4 10 5 0 13
-4 16 -10z m1171 -42 c-3 -18 -10 -71 -17 -117 -14 -98 -28 -117 -93 -126 -52
-8 -85 0 -41 10 17 4 39 13 50 21 19 15 19 15 1 26 -15 8 -16 12 -5 19 8 5 23
9 34 9 16 0 24 10 33 45 7 25 12 61 12 79 0 40 8 66 22 66 5 0 7 -15 4 -32z
m-3851 0 c25 -11 35 -38 13 -38 -14 0 -48 30 -48 42 0 11 4 10 35 -4z m1258
-74 c-31 -26 -67 -39 -81 -30 -18 11 3 66 31 85 28 18 29 18 54 -7 l25 -25
-29 -23z m-1329 41 c-4 -8 -8 -15 -10 -15 -2 0 -4 7 -4 15 0 8 4 15 10 15 5 0
7 -7 4 -15z m1390 -87 c22 -31 20 -35 -14 -53 -34 -18 -92 -12 -110 10 -9 11
-3 19 27 39 48 31 77 32 97 4z m-2414 -58 c25 -25 25 -27 -1 -87 -11 -26 -32
-82 -45 -123 -14 -41 -29 -84 -33 -95 -5 -11 -15 -40 -22 -65 -7 -25 -16 -49
-20 -55 -4 -5 -12 -26 -17 -45 -6 -19 -25 -73 -42 -120 -47 -128 -68 -191 -79
-235 -8 -36 -32 -111 -78 -245 -9 -25 -21 -65 -27 -90 -6 -25 -19 -59 -29 -77
-9 -18 -17 -38 -17 -46 0 -8 -9 -17 -21 -20 -23 -6 -49 1 -49 13 0 13 121 373
133 395 5 11 14 33 18 50 4 16 26 82 48 145 23 63 52 151 66 195 13 44 33 105
44 135 18 50 30 88 86 285 33 115 44 126 85 85z m1852 -181 c27 -29 48 -57 48
-64 0 -17 -47 -47 -67 -43 -9 2 -15 6 -12 10 2 3 -6 17 -19 31 -14 15 -20 30
-16 40 4 12 1 17 -10 17 -22 0 -31 27 -16 45 21 25 43 17 92 -36z m-98 -84
c-6 -16 -24 -21 -24 -7 0 11 11 22 21 22 5 0 6 -7 3 -15z m-178 -31 c58 -62
38 -95 -34 -58 -30 15 -31 16 -16 39 11 17 12 24 3 27 -11 4 -5 28 7 28 3 0
21 -16 40 -36z m4499 -89 c25 -53 45 -100 45 -105 0 -5 9 -25 20 -45 22 -40
25 -55 10 -55 -9 0 -90 155 -90 172 0 4 -11 32 -25 62 -28 61 -29 66 -15 66 5
0 30 -43 55 -95z m-4595 71 c0 -2 -7 -6 -15 -10 -8 -3 -15 -1 -15 4 0 6 7 10
15 10 8 0 15 -2 15 -4z m2 -62 c-7 -12 -11 -13 -17 -4 -4 7 -2 16 6 21 18 11
23 4 11 -17z m-132 -55 c0 -5 -10 -9 -21 -9 -18 0 -19 2 -9 15 12 15 30 12 30
-6z m-73 -31 c-3 -8 -6 -5 -6 6 -1 11 2 17 5 13 3 -3 4 -12 1 -19z m966 -33
c35 -33 47 -55 29 -55 -9 0 -61 54 -75 78 -15 24 9 12 46 -23z m2917 -135 c5
-19 14 -26 40 -30 29 -4 38 -12 54 -45 10 -22 21 -34 23 -27 8 20 21 14 37
-20 15 -29 15 -33 0 -49 -9 -10 -19 -39 -22 -64 -2 -25 -9 -48 -14 -51 -12 -8
-39 16 -32 27 3 5 -8 12 -25 15 -31 7 -45 29 -56 96 -4 28 -17 47 -53 78 -39
33 -44 42 -32 51 11 8 12 12 3 16 -20 8 -15 21 10 26 43 9 61 3 67 -23z m-210
-79 c0 -5 -7 -11 -15 -15 -9 -3 -15 0 -15 9 0 8 7 15 15 15 8 0 15 -4 15 -9z
m-2767 -20 c9 -10 8 -15 -8 -26 -11 -8 -25 -19 -31 -24 -7 -5 -34 -11 -60 -11
-65 -2 -267 20 -278 31 -6 5 -2 17 10 30 18 21 25 21 187 17 116 -3 171 -8
180 -17z m2417 -13 c24 -39 25 -48 6 -48 -7 0 -25 18 -40 40 -25 38 -25 40 -6
40 12 0 28 -13 40 -32z m-3126 16 c22 -8 20 -31 -3 -37 -21 -5 -61 17 -61 34
0 10 40 12 64 3z m203 -26 c34 -13 42 -25 20 -34 -8 -3 -11 -17 -9 -40 4 -31
2 -35 -14 -32 -15 3 -19 12 -17 38 l2 35 -13 -35 c-7 -19 -18 -35 -24 -34 -33
3 -34 4 -24 17 6 7 9 22 7 32 -2 11 -4 23 -4 28 -1 4 -14 7 -30 7 -30 0 -46
12 -34 24 11 10 105 7 140 -6z m3333 2 c0 -5 -7 -10 -15 -10 -8 0 -15 5 -15
10 0 6 7 10 15 10 8 0 15 -4 15 -10z m-1828 -23 c75 -16 83 -27 20 -27 -51 0
-102 16 -102 32 0 10 12 10 82 -5z m3086 -30 c2 -10 -3 -17 -12 -17 -18 0 -29
16 -21 31 9 14 29 6 33 -14z m-4898 -2 c10 -12 10 -15 -4 -15 -9 0 -16 7 -16
15 0 8 2 15 4 15 2 0 9 -7 16 -15z m3990 -5 c0 -11 -2 -20 -4 -20 -2 0 -6 9
-9 20 -3 11 -1 20 4 20 5 0 9 -9 9 -20z m-3792 -23 c2 -10 -3 -17 -12 -17 -10
0 -16 9 -16 21 0 24 23 21 28 -4z m410 -9 c9 -9 15 -9 24 0 13 13 67 16 117 6
22 -5 31 -12 29 -23 -5 -23 -148 -25 -202 -3 -32 13 -35 17 -20 23 28 11 39
10 52 -3z m4332 -75 c0 -10 19 -53 56 -125 18 -33 18 -38 -2 -38 -9 0 -18 10
-21 21 -4 12 -26 62 -50 111 -27 54 -42 97 -38 106 5 13 12 8 31 -23 13 -22
24 -45 24 -52z m-2539 41 c16 -19 24 -81 38 -299 23 -341 23 -383 2 -395 -33
-17 -85 -12 -111 12 -37 35 -94 31 -125 -8 l-24 -31 -158 -13 c-87 -6 -192
-10 -233 -8 -73 3 -75 4 -78 29 -3 25 0 27 49 34 33 5 59 15 68 26 11 13 36
22 76 27 l60 7 -4 120 c-2 66 -8 174 -15 240 l-11 120 -85 -1 c-47 -1 -112 -5
-146 -9 -54 -6 -62 -5 -68 11 -5 12 -1 23 9 30 9 7 20 25 24 41 4 15 18 33 32
40 34 16 243 36 338 32 69 -4 83 -8 108 -30 15 -14 35 -28 43 -31 25 -9 54 7
60 33 4 18 15 26 40 30 64 12 97 9 111 -7z m509 -9 c0 -22 -33 -35 -74 -28
-28 4 -34 8 -25 19 20 24 99 31 99 9z m-130 -13 c0 -16 -25 -32 -50 -32 -14 0
-30 -4 -35 -9 -13 -12 -112 -23 -118 -14 -6 10 -74 9 -104 -1 -17 -6 -23 -3
-23 9 0 24 42 35 141 37 49 1 95 5 101 10 17 10 88 10 88 0z m-2770 -22 c0 -5
-5 -10 -11 -10 -5 0 -7 5 -4 10 3 6 8 10 11 10 2 0 4 -4 4 -10z m660 -10 c0
-5 -4 -10 -10 -10 -5 0 -10 5 -10 10 0 6 5 10 10 10 6 0 10 -4 10 -10z m612
-9 c32 -4 60 -10 63 -13 11 -11 -7 -78 -20 -78 -7 0 -15 5 -17 11 -2 6 -27 12
-56 13 -29 2 -58 8 -64 14 -19 19 -49 14 -55 -8 -8 -29 -19 -25 -32 11 -16 46
-1 59 68 58 31 0 82 -4 113 -8z m-1204 -20 c3 -8 -1 -12 -9 -9 -7 2 -15 10
-17 17 -3 8 1 12 9 9 7 -2 15 -10 17 -17z m222 -41 c11 -11 17 -20 13 -21 -39
-5 -95 -4 -99 2 -4 8 42 38 59 39 4 0 16 -9 27 -20z m1130 0 c0 -5 -4 -10 -10
-10 -5 0 -10 5 -10 10 0 6 5 10 10 10 6 0 10 -4 10 -10z m100 1 c0 -13 -34
-23 -54 -15 -28 11 -18 24 19 24 19 0 35 -4 35 -9z m977 -17 c-9 -9 -28 6 -21
18 4 6 10 6 17 -1 6 -6 8 -13 4 -17z m229 17 c-5 -8 -56 -3 -56 5 0 2 14 4 31
4 16 0 28 -4 25 -9z m1167 -18 c-7 -2 -19 -2 -25 0 -7 3 -2 5 12 5 14 0 19 -2
13 -5z m-278 -43 c20 -38 19 -60 -4 -89 l-19 -25 -21 35 c-11 19 -21 48 -21
66 0 29 7 36 42 42 4 0 14 -12 23 -29z m-2342 -22 c23 -24 28 -37 23 -61 -12
-58 -30 -64 -109 -38 -66 22 -79 88 -24 121 40 26 73 19 110 -22z m1252 23 c3
-5 1 -12 -5 -16 -5 -3 -10 1 -10 9 0 18 6 21 15 7z m8 -108 c-7 -2 -19 -2 -25
0 -7 3 -2 5 12 5 14 0 19 -2 13 -5z m1397 -77 c0 -3 -4 -8 -10 -11 -5 -3 -10
-1 -10 4 0 6 5 11 10 11 6 0 10 -2 10 -4z m-670 -76 c0 -5 -4 -10 -10 -10 -5
0 -10 5 -10 10 0 6 5 10 10 10 6 0 10 -4 10 -10z m-1997 -27 c4 -2 14 -18 23
-35 14 -28 14 -31 -3 -43 -23 -17 -78 -28 -103 -20 -20 7 -38 65 -25 85 15 25
74 32 108 13z m1572 -83 c4 -6 -5 -10 -20 -10 -15 0 -24 4 -20 10 3 6 12 10
20 10 8 0 17 -4 20 -10z m715 -15 c0 -8 -4 -15 -10 -15 -5 0 -10 7 -10 15 0 8
5 15 10 15 6 0 10 -7 10 -15z m-3516 -11 c9 -8 16 -18 16 -22 5 -107 8 -242 5
-242 -3 0 -24 9 -47 19 -24 11 -51 22 -62 26 -18 5 -18 6 -2 24 10 11 13 22 8
25 -6 3 -8 36 -6 73 4 58 8 71 31 90 31 27 37 28 57 7z m181 -24 c3 -6 17 -7
30 -4 20 5 27 1 35 -22 8 -21 8 -29 -2 -36 -19 -12 -28 -10 -22 6 6 16 -11 29
-46 34 -30 4 -34 7 -25 21 8 14 22 14 30 1z m5372 -5 c20 -14 23 -14 31 1 7
12 17 15 41 9 17 -3 31 -9 31 -13 0 -13 -35 -42 -52 -42 -11 0 -18 -7 -18 -20
0 -11 1 -20 3 -20 2 0 22 9 45 20 22 11 48 20 56 20 18 0 57 -72 79 -145 15
-49 52 -134 128 -289 22 -44 39 -81 39 -83 0 -10 -27 0 -54 20 -17 13 -56 35
-87 50 -70 34 -109 64 -109 83 0 17 -31 116 -35 112 -3 -3 7 -58 22 -131 4
-23 21 -36 94 -75 53 -28 92 -56 98 -70 8 -16 18 -22 33 -20 16 2 29 -8 50
-37 15 -22 27 -43 28 -47 0 -9 -42 3 -60 17 -8 7 -51 32 -95 55 -44 24 -98 55
-120 69 -22 15 -49 31 -59 37 -11 6 -23 21 -27 35 -7 25 -16 59 -69 259 -16
63 -35 132 -41 152 -19 61 2 85 48 53z m-2027 -21 c0 -8 -4 -12 -10 -9 -5 3
-10 10 -10 16 0 5 5 9 10 9 6 0 10 -7 10 -16z m-3330 -24 c0 -5 -4 -10 -10
-10 -5 0 -10 5 -10 10 0 6 5 10 10 10 6 0 10 -4 10 -10z m-2611 -30 c17 0 31
-1 32 -2 0 -2 2 -22 5 -45 7 -49 -2 -56 -56 -45 -27 6 -39 16 -53 46 -21 44
-9 73 23 56 10 -6 32 -10 49 -10z m2619 -38 c5 -17 -55 -15 -61 2 -3 8 -3 16
-1 19 9 8 57 -8 62 -21z m52 -6 c0 -3 -4 -8 -10 -11 -5 -3 -10 -1 -10 4 0 6 5
11 10 11 6 0 10 -2 10 -4z m-86 -41 c4 -11 17 -15 43 -13 28 2 38 -1 38 -12 0
-8 4 -18 8 -21 15 -11 -17 -50 -37 -47 -28 4 -30 23 -4 36 l23 11 -22 0 c-12
1 -25 6 -28 11 -4 6 -10 8 -15 5 -15 -9 -40 7 -40 26 0 23 25 25 34 4z m-2684
-54 c0 -12 -28 -22 -34 -12 -3 5 -3 11 1 15 9 9 33 7 33 -3z m2680 -5 c0 -8
-4 -17 -9 -21 -12 -7 -24 12 -16 25 9 15 25 12 25 -4z m-2090 -68 c0 -16 -4
-28 -10 -28 -5 0 -10 19 -10 43 0 31 3 38 10 27 5 -8 10 -27 10 -42z m-239
-19 c3 -13 12 -44 19 -69 7 -25 21 -68 32 -97 20 -52 21 -94 3 -100 -9 -3 -54
146 -69 227 -2 14 -8 36 -12 49 -5 18 -4 23 6 19 8 -2 17 -15 21 -29z m2921
21 c31 0 37 -3 35 -21 -3 -41 -15 -42 -289 -35 -26 0 -53 7 -59 14 -7 6 -11
12 -8 13 2 0 15 2 29 4 14 1 41 6 60 10 19 4 60 9 90 12 30 3 57 7 60 10 2 2
14 2 25 -1 11 -3 37 -6 57 -6z m-2612 -15 c0 -8 -4 -15 -10 -15 -5 0 -10 7
-10 15 0 8 5 15 10 15 6 0 10 -7 10 -15z m7120 -40 c10 -12 10 -15 -3 -15 -8
0 -17 7 -21 15 -3 8 -2 15 3 15 5 0 14 -7 21 -15z m249 -89 c-21 -23 -29 38
-13 87 7 18 9 13 15 -28 3 -27 3 -54 -2 -59z m-95 45 c8 -12 -3 -41 -15 -41
-5 0 -9 11 -9 25 0 25 14 34 24 16z m666 -90 c5 -11 10 -25 10 -32 0 -18 -27
7 -33 31 -7 26 9 26 23 1z m-550 -53 c0 -16 -3 -19 -11 -11 -6 6 -8 16 -5 22
11 17 16 13 16 -11z m600 -28 c8 -5 12 -12 9 -15 -8 -8 -39 5 -39 16 0 11 11
11 30 -1z m-515 -59 c5 -8 -20 -41 -31 -41 -3 0 0 31 5 48 2 6 20 1 26 -7z
m-631 -90 c7 -11 -31 -22 -50 -14 -8 3 -11 9 -8 14 7 12 51 12 58 0z m34 -107
c24 -4 46 -13 51 -23 5 -9 9 -50 10 -92 0 -42 5 -87 10 -100 9 -26 -8 -99 -30
-125 -10 -13 -15 -12 -35 7 -19 18 -28 20 -46 12 -20 -9 -29 -4 -72 41 -57 60
-106 138 -106 168 0 12 -5 36 -12 54 -14 41 -1 61 45 67 35 5 117 0 185 -9z
m1292 -28 c0 -4 -12 -5 -27 -1 -33 8 -37 11 -29 23 7 11 56 -8 56 -22z m-3943
18 c-3 -3 -12 -4 -19 -1 -8 3 -5 6 6 6 11 1 17 -2 13 -5z m-3737 -62 c-17 -6
-42 7 -35 18 4 6 13 5 26 -3 10 -6 15 -13 9 -15z m365 -32 c3 -5 1 -10 -4 -10
-6 0 -11 5 -11 10 0 6 2 10 4 10 3 0 8 -4 11 -10z m7400 0 c3 -5 -1 -10 -10
-10 -9 0 -13 5 -10 10 3 6 8 10 10 10 2 0 7 -4 10 -10z m-728 -15 c9 -24 -2
-28 -52 -21 -48 8 -59 22 -22 29 46 9 68 7 74 -8z m-4182 -5 c3 -5 -1 -10 -9
-10 -9 0 -16 5 -16 10 0 6 4 10 9 10 6 0 13 -4 16 -10z m-1258 -45 c6 -18 -25
-58 -38 -49 -11 6 -12 48 -2 57 12 12 33 7 40 -8z m6227 -16 c-4 -7 16 -32 46
-60 34 -32 50 -53 47 -63 -9 -23 -32 -10 -53 30 -10 19 -24 34 -30 34 -20 0
-44 46 -31 59 14 14 30 14 21 0z m-8344 -48 c0 -11 -31 -24 -39 -16 -3 3 1 10
9 15 19 12 30 12 30 1z m703 -7 c31 -16 46 -20 95 -23 25 -1 28 -19 8 -47 -14
-18 -15 -18 -45 -1 -18 10 -40 15 -53 12 -20 -5 -27 0 -40 28 -23 49 -15 56
35 31z m4752 -26 c37 -19 63 -43 93 -86 40 -58 51 -82 35 -82 -5 1 -17 15 -28
32 -25 40 -111 77 -180 78 -28 0 -82 -7 -120 -15 -39 -9 -85 -18 -102 -22 -18
-3 -38 -12 -45 -21 -11 -13 -9 -14 17 -9 58 13 219 37 247 37 16 0 50 -12 77
-26 37 -19 53 -34 63 -62 15 -40 17 -83 4 -120 -4 -14 -1 -44 10 -80 10 -31
19 -77 20 -102 1 -25 3 -52 5 -60 1 -8 1 -36 1 -62 l-2 -48 -61 1 c-48 1 -63
-3 -74 -17 -14 -18 -14 -18 -15 0 0 11 -11 34 -25 52 -14 18 -28 47 -31 64 -5
22 -12 30 -28 30 -21 1 -51 53 -102 178 -20 49 -37 57 -22 10 5 -18 12 -41 15
-50 3 -10 9 -18 13 -18 4 0 10 -15 13 -32 3 -18 16 -62 30 -98 13 -36 27 -74
31 -85 4 -11 12 -28 17 -37 5 -10 9 -25 9 -33 0 -26 -17 -16 -31 18 -27 66
-93 125 -74 66 4 -11 2 -19 -4 -19 -6 0 -11 7 -11 15 0 9 -9 15 -25 15 -14 0
-25 -4 -25 -10 0 -5 -6 -10 -14 -10 -8 0 -22 -10 -31 -22 -13 -20 -17 -21 -25
-8 -5 8 -8 21 -5 28 3 7 1 10 -5 7 -8 -5 -27 30 -115 220 -59 127 -79 165 -91
165 -5 0 -44 -22 -85 -50 -40 -27 -77 -50 -81 -50 -26 0 16 53 137 176 137
138 238 176 455 171 101 -3 121 -7 165 -29z m3074 -99 c13 -17 21 -32 18 -35
-4 -5 -87 53 -87 61 0 3 10 5 23 5 14 0 32 -12 46 -31z m-7726 -49 c11 -10 0
-47 -16 -53 -7 -2 -41 3 -77 12 -54 13 -66 20 -68 38 -3 22 -2 23 75 17 43 -3
82 -9 86 -14z m3727 -84 c0 -3 -4 -8 -10 -11 -5 -3 -10 -1 -10 4 0 6 5 11 10
11 6 0 10 -2 10 -4z m-3854 -33 c22 -9 56 -15 77 -14 27 1 37 -2 37 -14 0 -18
-3 -18 -95 -2 -52 9 -71 17 -73 30 -4 21 5 21 54 0z m6694 3 c0 -3 -4 -8 -10
-11 -5 -3 -10 -1 -10 4 0 6 5 11 10 11 6 0 10 -2 10 -4z m-2509 -33 c9 -10 25
-49 38 -88 12 -38 26 -77 30 -85 5 -9 12 -34 15 -57 l7 -41 -43 5 c-30 5 -50
15 -67 34 -23 26 -26 27 -42 13 -16 -14 -18 -14 -29 5 -7 13 -21 21 -37 21
-21 0 -24 3 -15 12 20 20 15 58 -8 58 -45 0 -17 39 75 104 59 41 58 41 76 19z
m-4084 -362 c25 -7 27 -28 3 -23 -8 2 -31 6 -50 8 -19 3 -46 8 -60 11 -23 5
-24 6 -5 13 19 7 64 4 112 -9z m-207 -1 c0 -5 -7 -7 -15 -4 -8 4 -15 8 -15 10
0 2 7 4 15 4 8 0 15 -4 15 -10z m4770 -92 c0 -5 -4 -8 -10 -8 -5 0 -10 10 -10
23 0 18 2 19 10 7 5 -8 10 -18 10 -22z m500 -531 c0 -44 -124 -188 -205 -238
-66 -41 -78 -1 -14 46 23 17 66 59 96 95 30 36 64 75 74 88 21 24 49 30 49 9z
m-502 -369 c10 -49 -331 -79 -377 -33 -14 13 -11 15 29 16 118 1 230 10 275
23 59 16 69 15 73 -6z m-3555 -644 c53 -9 46 -24 -12 -24 -47 0 -68 9 -54 24
8 7 18 7 66 0z m-969 -289 c-7 -16 -84 -22 -84 -6 0 13 19 19 57 20 25 1 31
-2 27 -14z m172 -50 c16 -8 46 -18 67 -21 46 -8 47 -25 7 -66 -26 -25 -36 -29
-62 -24 -18 3 -42 13 -55 21 -37 25 -28 95 13 105 1 0 15 -7 30 -15z m5071
-91 c-3 -3 -12 -4 -19 -1 -8 3 -5 6 6 6 11 1 17 -2 13 -5z m-52 -14 c-3 -5
-18 -10 -33 -10 -21 0 -24 2 -12 10 20 13 53 13 45 0z m-4603 -27 c23 -20 23
-52 1 -69 -33 -25 -136 -13 -168 20 -28 27 -18 41 33 43 26 1 59 6 72 12 35
14 41 13 62 -6z m-616 -20 c-10 -10 -19 5 -10 18 6 11 8 11 12 0 2 -7 1 -15
-2 -18z m947 9 c45 -12 67 -29 67 -51 0 -41 -57 -54 -122 -27 -51 22 -64 41
-49 72 12 28 18 28 104 6z m4117 4 c0 -2 -7 -6 -15 -10 -8 -3 -15 -1 -15 4 0
6 7 10 15 10 8 0 15 -2 15 -4z m-65 -16 c-3 -5 -13 -10 -21 -10 -8 0 -12 5 -9
10 3 6 13 10 21 10 8 0 12 -4 9 -10z m-3754 -33 c-12 -12 -31 0 -31 19 0 12 3
12 20 2 11 -7 16 -16 11 -21z m-1771 -90 c0 -19 -10 -27 -26 -20 -21 8 -17 33
6 33 11 0 20 -6 20 -13z m5698 -564 c2 -8 -6 -13 -22 -13 -25 0 -33 10 -19 24
10 10 36 3 41 -11z m-94 -3 c-6 -6 -28 -13 -50 -16 -38 -5 -39 -5 -14 9 29 18
80 23 64 7z m191 -21 c5 -7 -5 -8 -32 -3 -51 9 -54 14 -10 14 20 0 39 -5 42
-11z m-295 -9 c0 -5 -7 -10 -15 -10 -8 0 -15 5 -15 10 0 6 7 10 15 10 8 0 15
-4 15 -10z m-5005 -1420 c4 -6 -5 -10 -19 -10 -14 0 -26 5 -26 10 0 6 9 10 19
10 11 0 23 -4 26 -10z m162 -26 c-3 -3 -12 -4 -19 -1 -8 3 -5 6 6 6 11 1 17
-2 13 -5z m-216 -523 c-6 -11 -11 -33 -11 -50 0 -17 -4 -31 -10 -31 -5 0 -10
13 -10 30 0 35 33 111 38 87 2 -9 -2 -25 -7 -36z"/>
<path d="M9140 15691 c0 -6 5 -13 10 -16 6 -3 10 1 10 9 0 9 -4 16 -10 16 -5
0 -10 -4 -10 -9z"/>
<path d="M10305 15223 c5 -381 8 -406 52 -446 29 -26 137 -34 185 -14 42 18
44 23 52 149 4 53 2 89 -4 93 -6 4 -10 -13 -10 -43 0 -78 -11 -137 -30 -162
-21 -28 -99 -38 -153 -21 -61 21 -67 54 -74 398 -3 164 -9 323 -13 353 -5 32
-7 -94 -5 -307z"/>
<path d="M10751 15027 l-1 -217 21 12 c19 12 20 19 14 78 -4 36 -9 94 -11 130
-14 213 -21 212 -23 -3z"/>
<path d="M9139 15151 c-1 -3 -3 -16 -4 -28 -1 -13 -8 -29 -15 -38 -7 -8 -9
-22 -6 -31 5 -14 10 -12 27 10 11 14 25 24 30 21 5 -4 9 -3 10 2 0 4 2 17 4
27 2 11 1 25 -3 30 -8 12 -41 17 -43 7z"/>
<path d="M9211 15114 c0 -11 3 -14 6 -6 3 7 2 16 -1 19 -3 4 -6 -2 -5 -13z"/>
<path d="M10580 15043 c0 -21 3 -24 9 -14 5 8 7 20 4 28 -8 21 -13 15 -13 -14z"/>
<path d="M10870 14841 c-24 -16 8 -22 60 -12 27 5 35 9 20 10 -14 1 -34 4 -45
6 -11 3 -27 1 -35 -4z"/>
<path d="M11295 14840 c3 -5 13 -10 21 -10 8 0 14 5 14 10 0 6 -9 10 -21 10
-11 0 -17 -4 -14 -10z"/>
<path d="M11350 14839 c0 -5 5 -7 10 -4 6 3 10 8 10 11 0 2 -4 4 -10 4 -5 0
-10 -5 -10 -11z"/>
<path d="M10073 14813 c9 -2 23 -2 30 0 6 3 -1 5 -18 5 -16 0 -22 -2 -12 -5z"/>
<path d="M10140 14404 c0 -17 22 -14 28 4 2 7 -3 12 -12 12 -9 0 -16 -7 -16
-16z"/>
<path d="M10310 14370 c0 -5 5 -10 10 -10 6 0 10 5 10 10 0 6 -4 10 -10 10 -5
0 -10 -4 -10 -10z"/>
<path d="M8243 13669 c1 -10 7 -19 13 -19 7 0 15 -6 17 -12 4 -9 6 -8 6 2 1 9
-8 23 -18 32 -18 16 -20 15 -18 -3z"/>
<path d="M8234 13146 c-9 -22 0 -79 12 -83 17 -6 24 21 17 61 -6 37 -19 47
-29 22z"/>
<path d="M8378 13103 c6 -2 18 -2 25 0 6 3 1 5 -13 5 -14 0 -19 -2 -12 -5z"/>
<path d="M8390 12974 c0 -8 4 -14 10 -14 5 0 8 -18 5 -39 -2 -29 1 -41 12 -45
12 -5 14 2 12 34 -2 21 0 42 4 46 13 13 7 22 -18 26 -17 4 -25 1 -25 -8z"/>
<path d="M8699 12673 c-6 -15 -15 -53 -19 -83 -5 -30 -14 -75 -20 -100 -6 -25
-15 -74 -19 -110 -5 -36 -15 -80 -21 -98 -8 -20 -10 -54 -7 -83 4 -34 3 -48
-6 -46 -6 1 -13 -8 -15 -20 -2 -13 1 -23 6 -23 13 0 52 97 52 131 0 15 7 54
16 86 60 222 71 273 70 333 -1 42 -23 50 -37 13z"/>
<path d="M8586 12071 c-4 -7 -5 -15 -2 -18 9 -9 19 4 14 18 -4 11 -6 11 -12 0z"/>
<path d="M12504 13395 c-10 -24 5 -36 27 -24 16 8 18 13 8 25 -15 18 -28 18
-35 -1z"/>
<path d="M12520 13275 c0 -8 4 -15 10 -15 5 0 7 7 4 15 -4 8 -8 15 -10 15 -2
0 -4 -7 -4 -15z"/>
<path d="M12410 13111 c0 -5 7 -14 15 -21 12 -10 15 -10 15 3 0 8 -7 17 -15
21 -8 3 -15 2 -15 -3z"/>
<path d="M11720 12804 c0 -8 5 -12 10 -9 6 3 10 10 10 16 0 5 -4 9 -10 9 -5 0
-10 -7 -10 -16z"/>
<path d="M11940 11050 c0 -5 5 -10 11 -10 5 0 7 5 4 10 -3 6 -8 10 -11 10 -2
0 -4 -4 -4 -10z"/>
<path d="M13137 11080 c-10 -37 -8 -76 5 -105 15 -33 29 -32 22 3 -3 15 -8 50
-13 77 -6 42 -8 46 -14 25z"/>
<path d="M13440 10516 c0 -9 7 -16 15 -16 9 0 15 -6 13 -13 -4 -19 33 -97 44
-91 5 3 7 2 6 -3 -3 -9 16 -59 31 -83 5 -8 35 -68 67 -134 36 -75 59 -114 64
-106 8 14 -5 60 -53 185 -28 74 -30 80 -28 96 1 8 -8 24 -19 34 -11 10 -29 38
-40 62 -10 24 -25 43 -33 43 -8 0 -26 9 -41 21 -21 17 -26 18 -26 5z"/>
<path d="M14071 9874 c0 -11 3 -14 6 -6 3 7 2 16 -1 19 -3 4 -6 -2 -5 -13z"/>
<path d="M7569 11432 c-51 -40 -99 -94 -99 -110 0 -5 -6 -15 -14 -21 -31 -26
-84 -158 -95 -236 -16 -109 -4 -162 49 -224 l21 -25 86 85 c48 46 104 101 124
121 31 30 119 187 119 211 0 4 -7 7 -15 7 -8 0 -15 -6 -15 -12 0 -34 -64 -138
-114 -188 -31 -29 -56 -59 -56 -66 0 -6 -28 -30 -61 -54 l-62 -43 -18 24 c-27
35 -26 146 2 219 30 81 70 150 82 143 6 -4 8 0 4 10 -4 10 4 32 18 53 14 20
25 42 25 49 0 7 18 29 40 49 22 20 40 38 40 41 0 12 -18 2 -61 -33z"/>
<path d="M7629 10968 c-35 -22 -179 -163 -179 -176 1 -12 24 -38 45 -49 26
-14 77 3 131 43 52 38 54 43 48 85 -4 25 -1 40 10 52 21 21 20 40 -3 54 -15 9
-25 7 -52 -9z"/>
<path d="M7290 10800 c0 -5 4 -10 9 -10 6 0 13 5 16 10 3 6 -1 10 -9 10 -9 0
-16 -4 -16 -10z"/>
<path d="M7272 10717 c-24 -25 -28 -37 -12 -37 13 0 60 41 60 52 0 16 -27 8
-48 -15z"/>
<path d="M9030 10981 c0 -17 5 -31 10 -31 6 0 10 11 10 24 0 14 -4 28 -10 31
-6 4 -10 -7 -10 -24z"/>
<path d="M9100 10930 c0 -5 5 -10 11 -10 5 0 7 5 4 10 -3 6 -8 10 -11 10 -2 0
-4 -4 -4 -10z"/>
<path d="M12112 9974 c9 -9 21 -13 27 -9 16 10 3 25 -22 25 -20 0 -20 -1 -5
-16z"/>
<path d="M12420 9902 c0 -7 -7 -12 -15 -12 -8 0 -15 -4 -15 -10 0 -5 4 -10 9
-10 13 0 35 29 27 37 -3 3 -6 1 -6 -5z"/>
<path d="M11065 9300 c3 -5 8 -10 11 -10 2 0 4 5 4 10 0 6 -5 10 -11 10 -5 0
-7 -4 -4 -10z"/>
<path d="M11177 9163 c-5 -22 0 -33 21 -50 28 -23 44 -14 22 12 -7 8 -9 26 -6
40 5 20 3 25 -13 25 -12 0 -21 -9 -24 -27z"/>
<path d="M8908 7276 c-3 -15 0 -27 8 -30 16 -6 28 10 15 19 -6 3 -8 12 -4 20
3 8 1 15 -5 15 -5 0 -12 -11 -14 -24z"/>
<path d="M8928 7193 c7 -3 16 -2 19 1 4 3 -2 6 -13 5 -11 0 -14 -3 -6 -6z"/>
<path d="M14600 7068 c0 -9 5 -20 10 -23 13 -8 13 5 0 25 -8 13 -10 13 -10 -2z"/>
<path d="M6704 14742 c21 -60 88 -186 186 -352 11 -19 32 -55 47 -80 32 -55
194 -299 263 -395 27 -38 69 -99 94 -135 47 -68 121 -155 93 -110 -46 73 -327
496 -373 560 -29 41 -53 78 -54 81 0 4 -17 36 -38 70 -21 35 -54 93 -74 129
-19 36 -44 81 -55 100 -11 19 -36 65 -57 103 -21 37 -39 67 -41 67 -2 0 2 -17
9 -38z"/>
<path d="M13226 14690 c-27 -5 -54 -14 -59 -19 -6 -6 -19 -11 -29 -11 -22 0
-151 -77 -196 -117 -25 -22 -32 -35 -32 -65 0 -21 3 -38 6 -38 3 0 41 26 83
58 123 92 218 132 321 132 162 0 375 -104 517 -251 91 -96 138 -223 152 -414
5 -79 8 -90 26 -94 11 -2 24 -10 30 -17 7 -10 21 -12 48 -8 31 6 37 11 39 33
5 92 3 135 -9 206 -8 44 -18 103 -22 130 -17 101 -45 161 -102 217 -90 88
-138 122 -274 194 l-130 68 -160 2 c-88 2 -182 -1 -209 -6z"/>
<path d="M12851 14548 c0 -7 7 -29 14 -48 l13 -35 1 32 c1 17 -2 38 -5 47 -7
19 -24 21 -23 4z"/>
<path d="M14912 13708 c-5 -7 -12 -22 -16 -33 -5 -16 -23 -25 -84 -38 -42 -9
-92 -20 -111 -22 -19 -3 -40 -10 -46 -15 -6 -5 -21 -7 -33 -3 -16 4 -22 1 -22
-11 0 -8 -11 -18 -25 -22 -13 -3 -29 -12 -36 -20 -6 -8 -18 -14 -26 -14 -9 0
-30 -12 -47 -27 -18 -16 -47 -39 -66 -53 -45 -33 -100 -92 -100 -107 0 -7 7
-13 16 -13 14 0 14 -3 4 -15 -7 -8 -19 -15 -26 -15 -8 0 -14 -9 -14 -20 0 -11
-4 -20 -9 -20 -15 0 -20 -62 -9 -115 15 -77 90 -223 147 -287 84 -93 273 -240
361 -281 103 -47 216 -77 290 -76 114 0 300 50 300 80 0 6 13 39 29 73 53 110
63 202 37 338 -32 163 -120 286 -286 396 -160 107 -403 131 -609 61 -63 -22
-61 -22 -61 -10 0 15 128 72 225 99 73 21 113 26 210 26 130 1 136 0 275 -67
127 -61 274 -212 320 -327 46 -114 68 -282 45 -335 -8 -18 -7 -19 10 -5 11 9
16 10 11 3 -4 -7 -3 -13 2 -13 15 0 30 123 28 235 -2 108 -3 112 -44 195 -24
47 -55 99 -70 116 -15 18 -33 41 -41 52 -8 11 -24 26 -37 32 -12 7 -27 23 -33
36 -6 14 -19 24 -31 24 -11 0 -23 7 -27 15 -3 9 -20 23 -37 32 -17 9 -56 34
-86 57 -30 23 -82 52 -115 65 -33 12 -70 27 -83 32 -32 13 -68 11 -80 -3z
m-178 -374 c16 -6 23 -33 9 -35 -5 0 -25 -2 -45 -4 -42 -4 -43 -3 -26 25 13
20 34 25 62 14z"/>
<path d="M13720 13179 c0 -8 9 -27 20 -44 11 -16 30 -45 41 -63 20 -31 25 -33
59 -27 29 5 39 3 43 -9 4 -9 1 -16 -6 -16 -7 0 -3 -7 8 -16 26 -19 69 -14 73
8 4 19 -58 83 -132 136 -52 37 -106 53 -106 31z"/>
<path d="M14440 12713 c0 -20 142 -141 210 -179 19 -10 42 -24 50 -30 19 -16
119 -48 126 -41 3 2 -17 16 -43 29 -90 46 -235 143 -330 220 -7 6 -13 6 -13 1z"/>
<path d="M16155 12650 c-57 -5 -92 -18 -232 -87 -60 -30 -243 -208 -283 -275
-21 -36 -24 -53 -22 -117 1 -42 7 -88 13 -103 10 -24 17 -28 50 -28 22 0 39
-4 39 -10 0 -5 9 -10 20 -10 11 0 20 -4 20 -10 0 -5 10 -10 23 -11 12 0 31 -5
42 -10 16 -7 14 -8 -10 -4 -20 4 -25 2 -15 -4 8 -4 39 -11 68 -15 50 -6 52 -6
52 18 0 19 4 23 20 19 13 -4 20 0 20 9 0 24 110 32 126 10 10 -13 16 -14 37
-5 17 8 65 9 168 3 275 -17 390 -29 403 -39 18 -15 171 -27 179 -14 4 6 26 7
61 2 59 -10 104 -8 126 6 9 5 15 4 18 -3 5 -15 42 -16 42 -2 0 6 11 10 25 10
14 0 52 13 86 29 58 29 82 36 104 31 6 -1 38 -1 72 0 44 1 69 -3 87 -16 46
-29 338 -65 352 -43 7 12 -102 119 -121 119 -7 0 -20 9 -31 21 -10 12 -32 28
-49 36 -16 9 -32 19 -35 22 -5 6 -47 34 -115 77 -57 35 -110 65 -218 119 -59
30 -114 61 -123 69 -8 9 -23 16 -33 16 -10 0 -26 9 -35 19 -10 11 -30 22 -44
26 -15 4 -34 12 -42 19 -8 8 -28 17 -45 20 -16 4 -33 12 -36 17 -7 12 -132 47
-213 60 -32 5 -78 16 -101 23 -42 15 -308 18 -450 6z"/>
<path d="M15446 12641 c-4 -7 -5 -15 -2 -18 9 -9 19 4 14 18 -4 11 -6 11 -12
0z"/>
<path d="M15845 11937 c-22 -13 -172 -16 -217 -4 -24 6 -26 5 -22 -17 4 -22 0
-24 -49 -30 -49 -6 -90 -3 -164 9 -18 3 -33 2 -33 -3 0 -13 320 -170 361 -177
152 -24 381 -37 749 -39 305 -3 347 -2 170 3 -223 7 -412 27 -485 52 -16 6
-43 14 -60 18 -23 5 -30 12 -30 31 0 18 -9 30 -35 42 -19 10 -42 27 -52 38 -9
11 -24 20 -33 20 -9 0 -23 7 -31 15 -9 8 -11 15 -5 15 6 0 11 7 11 15 0 8 -6
15 -14 15 -8 0 -20 2 -28 5 -7 2 -22 -1 -33 -8z"/>
<path d="M7988 11933 c7 -3 16 -2 19 1 4 3 -2 6 -13 5 -11 0 -14 -3 -6 -6z"/>
<path d="M7908 11913 c7 -3 16 -2 19 1 4 3 -2 6 -13 5 -11 0 -14 -3 -6 -6z"/>
<path d="M7838 11893 c6 -2 18 -2 25 0 6 3 1 5 -13 5 -14 0 -19 -2 -12 -5z"/>
<path d="M14482 11020 c0 -14 2 -19 5 -12 2 6 2 18 0 25 -3 6 -5 1 -5 -13z"/>
<path d="M14626 9992 c-2 -4 -1 -14 5 -22 7 -12 9 -10 9 8 0 23 -5 28 -14 14z"/>
<path d="M14605 9880 c-9 -15 -1 -23 21 -18 15 3 16 4 1 16 -11 9 -17 10 -22
2z"/>
<path d="M6563 9105 c0 -22 2 -30 4 -17 2 12 2 30 0 40 -3 9 -5 -1 -4 -23z"/>
<path d="M6710 9097 c0 -10 15 -16 48 -20 26 -3 66 -9 90 -13 58 -9 54 9 -5
24 -95 22 -133 25 -133 9z"/>
<path d="M6542 9000 c0 -14 2 -19 5 -12 2 6 2 18 0 25 -3 6 -5 1 -5 -13z"/>
<path d="M14424 8996 c-3 -9 -1 -22 5 -30 6 -7 8 -16 5 -19 -8 -8 26 -117 36
-117 4 0 3 19 -2 43 -6 23 -10 58 -9 78 1 41 -24 73 -35 45z"/>
<path d="M14535 8990 c3 -5 8 -10 11 -10 2 0 4 5 4 10 0 6 -5 10 -11 10 -5 0
-7 -4 -4 -10z"/>
<path d="M14827 8865 c-9 -19 -22 -35 -28 -35 -6 0 -9 -8 -7 -17 2 -11 12 -18
27 -18 18 0 27 -10 42 -45 l18 -45 -5 85 c-8 124 -17 138 -47 75z"/>
<path d="M14060 8875 c0 -15 24 -88 70 -215 22 -63 55 -153 72 -200 16 -47 43
-121 60 -165 16 -44 35 -98 43 -120 7 -22 32 -92 54 -155 23 -63 41 -123 41
-134 0 -11 6 -27 14 -35 8 -9 28 -56 44 -106 17 -49 31 -80 31 -68 1 12 -8 42
-18 67 -11 25 -23 62 -27 83 -4 21 -10 43 -14 48 -5 6 -37 98 -73 205 -91 271
-172 508 -190 555 -75 195 -90 231 -98 240 -6 6 -9 6 -9 0z"/>
<path d="M14580 8855 c0 -15 4 -24 10 -20 6 3 10 12 10 20 0 8 -4 17 -10 20
-6 4 -10 -5 -10 -20z"/>
<path d="M6345 8828 c-4 -9 -2 -24 3 -34 8 -15 10 -14 14 4 7 27 -8 53 -17 30z"/>
<path d="M14478 8790 c2 -16 6 -30 8 -30 2 0 4 14 4 30 0 17 -4 30 -8 30 -5 0
-7 -13 -4 -30z"/>
<path d="M14664 8774 c3 -9 6 -21 7 -27 0 -7 4 -3 9 8 13 29 12 35 -6 35 -11
0 -14 -5 -10 -16z"/>
<path d="M14340 8750 c-8 -5 -25 -10 -37 -10 -13 0 -23 -5 -23 -11 0 -6 7 -8
16 -5 9 3 21 6 28 6 7 0 21 7 32 15 21 16 8 20 -16 5z"/>
<path d="M14620 8671 c0 -11 5 -23 10 -26 6 -3 10 3 10 14 0 11 -4 23 -10 26
-5 3 -10 -3 -10 -14z"/>
<path d="M14806 8416 c-42 -13 -51 -23 -37 -44 6 -11 17 -9 54 9 26 13 47 29
47 36 0 15 -11 15 -64 -1z"/>
<path d="M14050 8340 c-25 -10 -76 -28 -115 -40 -38 -13 -74 -26 -78 -30 -5
-4 2 -27 15 -51 12 -24 24 -46 25 -47 6 -13 28 18 28 41 0 33 32 54 133 86 32
10 34 9 54 -24 23 -40 38 -45 38 -12 -1 27 -31 90 -45 93 -5 1 -30 -6 -55 -16z"/>
<path d="M14910 8273 c-24 -7 -57 -14 -73 -15 -31 -3 -42 -12 -32 -28 4 -6 19
-4 42 5 19 8 53 15 74 15 21 0 41 5 45 11 12 21 -11 26 -56 12z"/>
<path d="M14750 8208 c0 -16 5 -28 10 -28 13 0 13 20 0 40 -8 12 -10 9 -10
-12z"/>
<path d="M6520 8198 c0 -18 47 -28 128 -28 72 0 65 16 -10 24 -35 4 -75 10
-90 13 -21 4 -28 2 -28 -9z"/>
<path d="M14838 8148 c-3 -7 4 -47 14 -88 11 -41 22 -87 25 -102 3 -16 9 -28
13 -28 13 0 17 45 9 111 -4 35 -5 76 -2 92 5 25 3 27 -25 27 -16 0 -32 -6 -34
-12z"/>
<path d="M14775 8120 c12 -40 26 -59 19 -25 -4 17 -11 35 -16 40 -7 7 -8 1 -3
-15z"/>
<path d="M14931 8104 c0 -11 3 -14 6 -6 3 7 2 16 -1 19 -3 4 -6 -2 -5 -13z"/>
<path d="M14165 8101 c-8 -8 -104 -40 -192 -66 -24 -7 -29 -24 -14 -53 5 -9
14 -29 20 -44 7 -18 18 -28 31 -28 20 0 20 0 -2 30 l-22 30 22 22 c28 30 131
71 168 66 23 -2 31 -10 39 -35 10 -36 35 -45 35 -13 0 11 -7 38 -16 60 -16 40
-46 53 -69 31z"/>
<path d="M6330 8076 l-55 -12 2 -103 c1 -57 5 -107 10 -110 5 -3 13 -15 16
-25 9 -24 20 -14 22 21 2 16 9 50 16 77 14 49 15 49 69 62 139 31 213 36 355
24 141 -11 164 -15 265 -46 116 -34 118 -33 145 52 22 69 13 81 -14 20 -21
-48 -32 -53 -78 -35 -53 20 -214 59 -308 74 -112 18 -364 18 -445 1z"/>
<path d="M14912 8035 c0 -16 2 -22 5 -12 2 9 2 23 0 30 -3 6 -5 -1 -5 -18z"/>
<path d="M14811 7984 c0 -11 3 -14 6 -6 3 7 2 16 -1 19 -3 4 -6 -2 -5 -13z"/>
<path d="M14553 7896 c-74 -15 -99 -31 -33 -22 25 4 64 9 87 12 24 3 40 10 37
15 -6 11 -11 11 -91 -5z"/>
<path d="M14841 7885 c1 -24 27 -96 28 -75 0 8 -6 33 -14 55 -8 22 -14 31 -14
20z"/>
<path d="M14781 7803 c0 -10 4 -27 8 -38 7 -17 8 -17 15 8 3 16 4 32 1 37 -10
16 -25 11 -24 -7z"/>
<path d="M14800 7703 c0 -12 5 -25 11 -28 17 -11 18 -2 4 25 -14 24 -14 24
-15 3z"/>
<path d="M14821 7650 c0 -30 26 -114 37 -118 18 -6 14 21 -12 79 -14 30 -25
47 -25 39z"/>
<path d="M14500 7620 c4 -19 13 -49 19 -66 7 -17 11 -37 9 -45 -2 -8 7 -15 20
-17 22 -3 23 -2 9 20 -9 13 -20 41 -26 63 -6 22 -17 49 -25 60 -14 18 -14 17
-6 -15z"/>
<path d="M14725 7560 c-11 -5 -47 -17 -79 -26 -75 -22 -57 -29 34 -14 58 10
70 15 70 31 0 10 -1 19 -2 18 -2 0 -12 -4 -23 -9z"/>
<path d="M14863 7485 c-3 -9 -3 -18 0 -21 9 -9 27 6 27 22 0 19 -19 18 -27 -1z"/>
<path d="M14345 7445 l-30 -14 30 6 c17 3 34 10 40 14 14 13 -5 10 -40 -6z"/>
</g>
</svg>
